<svg width="367" height="214" viewBox="0 0 367 214" fill="none" xmlns="http://www.w3.org/2000/svg">
<path d="M108.645 36.0838C105.311 36.0838 101.794 34.8049 99.0991 33.7087V25.4414L101.063 25.076C102.616 30.3743 105.174 33.7543 108.828 33.7543C113.167 33.7543 114.766 31.0595 114.766 28.3646C114.766 25.8981 113.989 23.7057 109.102 20.7824C107.549 19.7319 105.95 18.9554 104.489 18.0419C100.378 15.4841 99.3275 12.5608 99.3275 9.4092C99.3275 4.61325 103.347 1.23325 108.691 1.23325C112.162 1.23325 115.405 2.78622 117.232 3.69974V10.6424L115.268 10.9165C114.492 6.3946 112.071 3.47136 108.645 3.47136C105.631 3.47136 103.301 5.34406 103.301 8.31298C103.301 10.3684 104.443 12.2411 107.229 13.9311C108.874 14.936 110.335 15.8038 111.98 16.9C116.913 19.9146 118.831 23.0206 118.831 27.04C118.831 32.4754 114.537 36.0838 108.645 36.0838ZM131.979 36.0381C130.06 36.0381 128.416 35.2616 127.274 33.937C126.269 32.7495 125.676 31.1051 125.676 28.3189V18.5443C125.676 15.5754 124.488 14.6619 122.25 14.4335V12.5608L129.604 12.1041V27.3141C129.604 29.0954 129.969 30.283 130.654 31.1051C131.385 32.0187 132.527 32.5668 133.989 32.5668C136.044 32.5668 137.962 31.4249 139.561 29.7349V18.5443C139.561 15.5754 138.328 14.6619 136.044 14.4335V12.5608L143.489 12.1041V28.6843C143.489 31.6989 144.631 32.4754 146.869 32.6581V34.5308C144.494 34.8506 142.256 35.353 140.109 36.1295L139.424 35.8097L139.607 32.3384C137.323 34.5308 134.719 36.0381 131.979 36.0381ZM163.321 34.0741C165.742 33.8457 167.021 32.9322 167.021 29.9633V20.7368C167.021 18.6814 166.61 17.4481 165.788 16.5346C165.057 15.6668 163.961 15.21 162.636 15.21C160.581 15.21 158.662 16.3062 157.064 17.9506V29.9633C157.064 32.9322 158.297 33.8457 160.626 34.0741V35.4443H149.481V34.0741C151.857 33.8457 153.136 32.9322 153.136 29.9633V16.8543L149.481 15.073V14.2965L156.424 11.7843L157.064 12.1041V15.6668C159.347 13.4743 161.905 12.0127 164.646 12.0127C166.564 12.0127 168.209 12.7892 169.35 14.1138C170.355 15.3014 170.949 16.9457 170.949 19.7319V29.9633C170.949 32.9322 172.091 33.8457 174.329 34.0741V35.4443H163.321V34.0741ZM179.114 19.7319H190.715V23.2033H179.114V19.7319ZM204.536 36.0838C202.161 36.0838 200.06 35.1246 197.502 33.7087L197.639 27.8165L199.603 27.5424C200.243 31.5619 202.116 34.0741 204.902 34.0741C207.14 34.0741 208.876 32.7038 208.921 30.6027C208.921 29.0954 207.688 27.6795 205.724 26.5376C204.491 25.8068 203.303 25.0303 202.07 24.3451C199.786 23.1119 197.685 21.1478 197.685 17.8135C197.685 14.5706 200.7 11.967 204.81 11.967C207.186 11.967 209.424 12.7435 211.388 13.8397V18.59L209.424 18.9097L209.332 18.453C208.51 15.6211 207.14 13.8854 204.673 13.8854C202.755 13.8854 201.248 15.1187 201.248 16.7173C201.248 18.1789 202.024 19.2295 203.577 20.1887C204.582 20.9195 206.089 21.696 207.414 22.4724C210.109 24.1168 212.21 25.6697 212.21 29.3695C212.21 33.3889 208.967 36.0838 204.536 36.0838ZM226.581 35.9924C220.689 35.9924 216.487 30.9224 216.487 24.2995C216.487 17.1284 220.781 11.967 226.353 11.967C231.103 11.967 234.803 16.2606 235.123 20.5997L234.483 21.3762L219.913 21.2392V21.9243C219.913 28.9584 224.343 32.1557 228.637 32.1557C230.738 32.1557 232.473 31.2878 233.798 29.6435L235.26 30.6027C233.204 33.8914 230.144 35.9924 226.581 35.9924ZM220.187 19.3665L230.235 19.2295C229.824 16.7173 228.226 14.1595 225.576 14.1595C222.242 14.1595 220.735 16.763 220.187 19.3665ZM248.839 35.9924C242.947 35.9924 238.745 30.9224 238.745 24.2995C238.745 17.1284 243.038 11.967 248.611 11.967C253.361 11.967 257.061 16.2606 257.381 20.5997L256.741 21.3762L242.171 21.2392V21.9243C242.171 28.9584 246.601 32.1557 250.895 32.1557C252.996 32.1557 254.731 31.2878 256.056 29.6435L257.518 30.6027C255.462 33.8914 252.402 35.9924 248.839 35.9924ZM242.445 19.3665L252.493 19.2295C252.082 16.7173 250.484 14.1595 247.834 14.1595C244.5 14.1595 242.993 16.763 242.445 19.3665ZM260.281 33.5716C262.656 33.3433 263.935 32.4297 263.935 29.4608V5.57244L260.463 3.79109V2.46649L267.223 8.5676e-06L267.863 0.274062V23.2946L272.293 19.1381C273.664 17.8592 274.166 16.9914 274.166 16.3519C274.166 15.3014 273.253 14.6619 271.928 14.4792V12.6065H282.616V14.4792C280.515 15.1187 279.19 15.7124 275.628 19.0011L271.791 22.5181L279.784 30.3287C281.748 32.1557 282.296 32.7038 283.712 33.8V35.5357L279.464 35.4443L268.731 24.9846L267.863 25.7611V29.4608C267.863 32.4297 269.05 33.3433 271.243 33.5716V35.4443H260.281V33.5716ZM295.809 35.9924C289.916 35.9924 285.714 30.9224 285.714 24.2995C285.714 17.1284 290.008 11.967 295.58 11.967C300.33 11.967 304.03 16.2606 304.35 20.5997L303.71 21.3762L289.14 21.2392V21.9243C289.14 28.9584 293.57 32.1557 297.864 32.1557C299.965 32.1557 301.701 31.2878 303.025 29.6435L304.487 30.6027C302.431 33.8914 299.371 35.9924 295.809 35.9924ZM289.414 19.3665L299.463 19.2295C299.051 16.7173 297.453 14.1595 294.804 14.1595C291.469 14.1595 289.962 16.763 289.414 19.3665ZM307.562 33.5716C309.937 33.3433 311.216 32.4297 311.216 29.4608V17.3568L307.516 15.5754V14.2965L314.505 11.7843L315.144 12.1041V16.1692C316.789 13.9311 318.981 12.1497 321.448 12.1497C322.864 12.1497 324.325 13.2916 324.234 15.4841C324.188 16.9457 323.183 18.0419 321.95 18.0419C320.488 18.0419 320.077 15.6211 319.072 15.6211C317.565 15.6211 316.241 17.4024 315.144 19.3665V29.4608C315.144 32.4297 316.743 33.3433 319.575 33.5716V35.4443H307.562V33.5716ZM334.605 36.0838C332.23 36.0838 330.129 35.1246 327.571 33.7087L327.708 27.8165L329.672 27.5424C330.312 31.5619 332.184 34.0741 334.97 34.0741C337.209 34.0741 338.944 32.7038 338.99 30.6027C338.99 29.0954 337.757 27.6795 335.793 26.5376C334.559 25.8068 333.372 25.0303 332.139 24.3451C329.855 23.1119 327.754 21.1478 327.754 17.8135C327.754 14.5706 330.768 11.967 334.879 11.967C337.254 11.967 339.492 12.7435 341.456 13.8397V18.59L339.492 18.9097L339.401 18.453C338.579 15.6211 337.209 13.8854 334.742 13.8854C332.824 13.8854 331.316 15.1187 331.316 16.7173C331.316 18.1789 332.093 19.2295 333.646 20.1887C334.651 20.9195 336.158 21.696 337.483 22.4724C340.177 24.1168 342.279 25.6697 342.279 29.3695C342.279 33.3889 339.036 36.0838 334.605 36.0838ZM348.702 41.7019C350.529 40.8797 353.544 39.5551 353.544 37.2257C353.544 35.3987 351.397 35.2616 350.347 34.6678C349.433 34.1654 349.022 33.526 349.022 32.5211C349.022 31.1508 350.027 29.7806 351.9 29.7806C353.864 29.7806 356.33 31.5619 356.33 35.1703C356.33 39.5095 353.087 42.0216 349.342 43.3919L348.702 41.7019Z" fill="white"/>
<path d="M145.505 154.567C143.769 154.567 142.582 153.425 142.353 151.369C140.115 153.333 138.517 154.658 135.73 154.658C132.396 154.658 130.249 151.917 130.249 149.177C130.249 144.427 134.36 142.965 139.11 141.412L140.389 141.001L142.353 140.361V139.722C142.353 136.342 141.988 134.743 141.12 133.83C140.435 133.099 139.43 132.825 138.471 132.825C136.872 132.825 134.406 134.058 134.406 135.474C134.406 136.205 134.68 136.296 134.954 136.707L135.228 137.118C135.593 137.667 135.685 137.895 135.685 138.26C135.685 138.489 135.548 138.717 135.228 138.9L133.492 139.768C132.898 140.087 132.67 140.179 132.396 140.179C132.168 140.179 131.939 140.087 131.619 139.539C131.071 138.626 130.843 137.849 130.843 136.981C130.889 133.145 135.867 130.724 139.476 130.724C141.622 130.724 143.267 131.135 144.637 132.277C145.733 133.19 146.236 134.606 146.236 137.575L146.144 148.583C146.144 150.227 146.601 151.004 147.56 151.004C148.063 151.004 148.337 150.867 148.565 150.684L149.753 152.1C148.611 153.516 147.697 154.567 145.505 154.567ZM134.497 147.944C134.497 149.908 135.913 151.232 137.831 151.232C139.065 151.232 140.389 150.456 141.805 149.085L142.262 148.629L142.353 142.051L139.978 143.148C137.694 144.244 134.497 145.34 134.497 147.944ZM165.892 152.831C168.313 152.603 169.592 151.689 169.592 148.72V139.494C169.592 137.438 169.181 136.205 168.359 135.291C167.628 134.424 166.532 133.967 165.207 133.967C163.152 133.967 161.233 135.063 159.635 136.707V148.72C159.635 151.689 160.868 152.603 163.197 152.831V154.201H152.053V152.831C154.428 152.603 155.707 151.689 155.707 148.72V135.611L152.053 133.83V133.053L158.995 130.541L159.635 130.861V134.424C161.919 132.231 164.476 130.77 167.217 130.77C169.135 130.77 170.78 131.546 171.921 132.871C172.926 134.058 173.52 135.703 173.52 138.489V148.72C173.52 151.689 174.662 152.603 176.9 152.831V154.201H165.892V152.831ZM197.032 154.886L196.347 154.567L196.529 150.913C194.383 153.333 192.099 154.795 188.856 154.795C183.603 154.795 179.538 149.999 179.538 143.239C179.538 136.388 184.288 130.724 191.642 130.724C193.469 130.724 195.113 131.181 196.484 131.957V124.329L193.012 122.548V121.223L199.772 118.757L200.412 119.031V147.944C200.412 150.456 201.554 151.232 203.792 151.415V153.288C201.417 153.607 199.178 154.11 197.032 154.886ZM183.557 141.823C183.557 146.391 185.521 151.141 190.774 151.141C193.195 151.141 195.068 150.227 196.484 148.629V140.635C196.484 137.53 195.844 135.794 194.702 134.652C193.697 133.601 192.373 133.099 190.774 133.099C186.252 133.099 183.557 136.799 183.557 141.823ZM246.64 152.831C249.106 152.603 250.385 151.689 250.385 148.72V139.494C250.385 137.438 249.974 136.205 249.152 135.291C248.421 134.424 247.325 133.967 246 133.967C243.899 133.967 241.935 135.109 240.337 136.799C240.382 137.301 240.428 137.895 240.428 138.489V148.72C240.428 151.689 241.615 152.603 243.854 152.831V154.201H232.8V152.831C235.221 152.603 236.5 151.689 236.5 148.72V139.494C236.5 137.438 236.089 136.205 235.267 135.291C234.536 134.424 233.439 133.967 232.115 133.967C230.059 133.967 228.141 135.017 226.542 136.707V148.218C226.542 151.187 227.776 152.1 230.105 152.328V154.201H218.96V152.328C221.335 152.1 222.614 151.187 222.614 148.218V136.114L218.96 134.332V133.053L225.903 130.541L226.542 130.861V134.424C228.872 132.231 231.43 130.77 234.125 130.77C236.043 130.77 237.687 131.546 238.829 132.871C239.332 133.464 239.697 134.104 239.971 134.926C242.438 132.414 245.132 130.77 248.01 130.77C249.928 130.77 251.573 131.546 252.715 132.871C253.719 134.058 254.313 135.703 254.313 138.489V148.72C254.313 151.689 255.501 152.603 257.739 152.831V154.201H246.64V152.831ZM275.574 154.567C273.838 154.567 272.65 153.425 272.422 151.369C270.184 153.333 268.585 154.658 265.799 154.658C262.465 154.658 260.318 151.917 260.318 149.177C260.318 144.427 264.429 142.965 269.179 141.412L270.458 141.001L272.422 140.361V139.722C272.422 136.342 272.056 134.743 271.189 133.83C270.504 133.099 269.499 132.825 268.539 132.825C266.941 132.825 264.474 134.058 264.474 135.474C264.474 136.205 264.748 136.296 265.022 136.707L265.296 137.118C265.662 137.667 265.753 137.895 265.753 138.26C265.753 138.489 265.616 138.717 265.296 138.9L263.561 139.768C262.967 140.087 262.739 140.179 262.465 140.179C262.236 140.179 262.008 140.087 261.688 139.539C261.14 138.626 260.912 137.849 260.912 136.981C260.957 133.145 265.936 130.724 269.544 130.724C271.691 130.724 273.335 131.135 274.706 132.277C275.802 133.19 276.304 134.606 276.304 137.575L276.213 148.583C276.213 150.227 276.67 151.004 277.629 151.004C278.131 151.004 278.405 150.867 278.634 150.684L279.821 152.1C278.679 153.516 277.766 154.567 275.574 154.567ZM264.566 147.944C264.566 149.908 265.982 151.232 267.9 151.232C269.133 151.232 270.458 150.456 271.874 149.085L272.331 148.629L272.422 142.051L270.047 143.148C267.763 144.244 264.566 145.34 264.566 147.944ZM281.675 152.328C284.05 152.1 285.329 151.187 285.329 148.218V124.329L281.858 122.548V121.223L288.618 118.757L289.257 119.031V142.051L293.688 137.895C295.058 136.616 295.561 135.748 295.561 135.109C295.561 134.058 294.647 133.419 293.322 133.236V131.363H304.011V133.236C301.909 133.875 300.585 134.469 297.022 137.758L293.185 141.275L301.179 149.085C303.143 150.913 303.691 151.461 305.107 152.557V154.293L300.859 154.201L290.125 143.741L289.257 144.518V148.218C289.257 151.187 290.445 152.1 292.637 152.328V154.201H281.675V152.328ZM317.203 154.749C311.311 154.749 307.109 149.679 307.109 143.056C307.109 135.885 311.402 130.724 316.975 130.724C321.725 130.724 325.425 135.017 325.744 139.357L325.105 140.133L310.534 139.996V140.681C310.534 147.715 314.965 150.913 319.258 150.913C321.359 150.913 323.095 150.045 324.42 148.4L325.881 149.36C323.826 152.648 320.766 154.749 317.203 154.749ZM310.808 138.123L320.857 137.986C320.446 135.474 318.847 132.916 316.198 132.916C312.864 132.916 311.356 135.52 310.808 138.123ZM328.957 152.328C331.332 152.1 332.611 151.187 332.611 148.218V136.114L328.911 134.332V133.053L335.899 130.541L336.539 130.861V134.926C338.183 132.688 340.376 130.907 342.842 130.907C344.258 130.907 345.72 132.048 345.628 134.241C345.583 135.703 344.578 136.799 343.344 136.799C341.883 136.799 341.472 134.378 340.467 134.378C338.96 134.378 337.635 136.159 336.539 138.123V148.218C336.539 151.187 338.137 152.1 340.969 152.328V154.201H328.957V152.328ZM355.999 154.841C353.624 154.841 351.523 153.881 348.965 152.465L349.102 146.573L351.066 146.299C351.706 150.319 353.579 152.831 356.365 152.831C358.603 152.831 360.339 151.461 360.384 149.36C360.384 147.852 359.151 146.436 357.187 145.294C355.954 144.564 354.766 143.787 353.533 143.102C351.249 141.869 349.148 139.905 349.148 136.57C349.148 133.327 352.163 130.724 356.274 130.724C358.649 130.724 360.887 131.5 362.851 132.597V137.347L360.887 137.667L360.795 137.21C359.973 134.378 358.603 132.642 356.137 132.642C354.218 132.642 352.711 133.875 352.711 135.474C352.711 136.936 353.487 137.986 355.04 138.945C356.045 139.676 357.552 140.453 358.877 141.229C361.572 142.874 363.673 144.427 363.673 148.126C363.673 152.146 360.43 154.841 355.999 154.841Z" fill="white"/>
<path d="M21.743 95.5074L21.0579 95.1877L21.2406 91.5336C19.0938 93.9544 16.81 95.416 13.567 95.416C8.31435 95.416 4.24921 90.6201 4.24921 83.8601C4.24921 77.0088 8.99948 71.345 16.3533 71.345C18.1803 71.345 19.8246 71.8017 21.1949 72.5782V64.9504L17.7235 63.169V61.8444L24.4835 59.3779L25.123 59.652V88.5647C25.123 91.0769 26.2649 91.8533 28.503 92.036V93.9088C26.1279 94.2285 23.8898 94.7309 21.743 95.5074ZM8.26867 82.4442C8.26867 87.0117 10.2327 91.762 15.4854 91.762C17.9062 91.762 19.7789 90.8485 21.1949 89.2498V81.2566C21.1949 78.1506 20.5554 76.415 19.4135 75.2731C18.4087 74.2225 17.0841 73.7201 15.4854 73.7201C10.9635 73.7201 8.26867 77.4198 8.26867 82.4442ZM47.3385 95.1877C45.6028 95.1877 44.4153 94.0458 44.1869 91.9904C41.9488 93.9544 40.3501 95.279 37.5639 95.279C34.2296 95.279 32.0828 92.5385 32.0828 89.7979C32.0828 85.0477 36.1936 83.586 40.9439 82.0331L42.2228 81.622L44.1869 80.9825V80.3431C44.1869 76.9631 43.8215 75.3644 42.9536 74.4509C42.2685 73.7201 41.2636 73.446 40.3044 73.446C38.7058 73.446 36.2393 74.6793 36.2393 76.0952C36.2393 76.826 36.5134 76.9174 36.7874 77.3285L37.0615 77.7396C37.4269 78.2877 37.5182 78.516 37.5182 78.8815C37.5182 79.1098 37.3812 79.3382 37.0615 79.5209L35.3258 80.3888C34.732 80.7085 34.5036 80.7998 34.2296 80.7998C34.0012 80.7998 33.7728 80.7085 33.4531 80.1604C32.905 79.2469 32.6766 78.4704 32.6766 77.6025C32.7223 73.7658 37.7009 71.345 41.3093 71.345C43.4561 71.345 45.1004 71.756 46.4707 72.8979C47.5669 73.8115 48.0693 75.2274 48.0693 78.1963L47.978 89.2042C47.978 90.8485 48.4347 91.625 49.3939 91.625C49.8963 91.625 50.1704 91.4879 50.3988 91.3052L51.5863 92.7212C50.4445 94.1371 49.5309 95.1877 47.3385 95.1877ZM36.3307 88.5647C36.3307 90.5288 37.7466 91.8533 39.665 91.8533C40.8982 91.8533 42.2228 91.0769 43.6388 89.7066L44.0955 89.2498L44.1869 82.6725L41.8117 83.7688C39.528 84.865 36.3307 85.9612 36.3307 88.5647ZM55.74 105.373C53.3648 105.373 52.0402 104.277 52.0402 102.541C52.0402 101.263 52.6797 100.44 53.5932 100.44C54.324 100.44 54.7351 100.851 55.5116 101.4C56.1511 101.856 56.6078 102.176 57.3386 102.176C58.7546 102.176 59.6681 100.258 61.1754 96.2382L62.0889 93.8174L54.8721 77.9679C53.5475 75.0904 52.2229 74.0855 51.1267 73.8571V71.9844H61.1754V73.8571C59.8508 74.0398 58.8002 74.6336 58.8002 76.0496C58.8002 76.5977 58.8916 77.1915 59.394 78.3333L64.0073 88.6104L67.7984 78.379C68.1638 77.3285 68.2551 76.7347 68.2551 76.2779C68.2551 74.6336 66.9305 74.0398 65.2862 73.8571V71.9844H73.8732V73.8571C72.8227 74.0855 71.4067 74.999 70.2648 77.9679C67.6613 84.7736 64.7838 92.8125 62.6827 98.522C61.2211 102.45 59.3027 105.373 55.74 105.373ZM93.1558 95.5074L92.4707 95.1877L92.6534 91.5336C90.5067 93.9544 88.2229 95.416 84.9799 95.416C79.7272 95.416 75.6621 90.6201 75.6621 83.8601C75.6621 77.0088 80.4123 71.345 87.7661 71.345C89.5931 71.345 91.2375 71.8017 92.6077 72.5782V64.9504L89.1364 63.169V61.8444L95.8964 59.3779L96.5358 59.652V88.5647C96.5358 91.0769 97.6777 91.8533 99.9158 92.036V93.9088C97.5407 94.2285 95.3026 94.7309 93.1558 95.5074ZM79.6815 82.4442C79.6815 87.0117 81.6456 91.762 86.8983 91.762C89.3191 91.762 91.1918 90.8485 92.6077 89.2498V81.2566C92.6077 78.1506 91.9683 76.415 90.8264 75.2731C89.8215 74.2225 88.4969 73.7201 86.8983 73.7201C82.3764 73.7201 79.6815 77.4198 79.6815 82.4442ZM103.13 92.9496C105.505 92.7212 106.784 91.8077 106.784 88.8388V76.7347L103.085 74.9533V73.6744L110.073 71.1623L110.712 71.482V75.5471C112.357 73.309 114.549 71.5277 117.016 71.5277C118.432 71.5277 119.893 72.6696 119.802 74.862C119.756 76.3236 118.751 77.4198 117.518 77.4198C116.056 77.4198 115.645 74.999 114.641 74.999C113.133 74.999 111.809 76.7804 110.712 78.7444V88.8388C110.712 91.8077 112.311 92.7212 115.143 92.9496V94.8223H103.13V92.9496ZM132.413 95.3704C126.521 95.3704 122.319 90.3004 122.319 83.6774C122.319 76.5063 126.613 71.345 132.185 71.345C136.935 71.345 140.635 75.6385 140.955 79.9777L140.315 80.7542L125.745 80.6171V81.3023C125.745 88.3363 130.175 91.5336 134.469 91.5336C136.57 91.5336 138.306 90.6658 139.63 89.0215L141.092 89.9806C139.036 93.2693 135.976 95.3704 132.413 95.3704ZM126.019 78.7444L136.067 78.6074C135.656 76.0952 134.058 73.5374 131.409 73.5374C128.074 73.5374 126.567 76.1409 126.019 78.7444ZM159.833 95.1877C158.097 95.1877 156.909 94.0458 156.681 91.9904C154.443 93.9544 152.844 95.279 150.058 95.279C146.724 95.279 144.577 92.5385 144.577 89.7979C144.577 85.0477 148.688 83.586 153.438 82.0331L154.717 81.622L156.681 80.9825V80.3431C156.681 76.9631 156.316 75.3644 155.448 74.4509C154.763 73.7201 153.758 73.446 152.799 73.446C151.2 73.446 148.734 74.6793 148.734 76.0952C148.734 76.826 149.008 76.9174 149.282 77.3285L149.556 77.7396C149.921 78.2877 150.012 78.516 150.012 78.8815C150.012 79.1098 149.875 79.3382 149.556 79.5209L147.82 80.3888C147.226 80.7085 146.998 80.7998 146.724 80.7998C146.495 80.7998 146.267 80.7085 145.947 80.1604C145.399 79.2469 145.171 78.4704 145.171 77.6025C145.216 73.7658 150.195 71.345 153.804 71.345C155.95 71.345 157.595 71.756 158.965 72.8979C160.061 73.8115 160.564 75.2274 160.564 78.1963L160.472 89.2042C160.472 90.8485 160.929 91.625 161.888 91.625C162.391 91.625 162.665 91.4879 162.893 91.3052L164.081 92.7212C162.939 94.1371 162.025 95.1877 159.833 95.1877ZM148.825 88.5647C148.825 90.5288 150.241 91.8533 152.159 91.8533C153.392 91.8533 154.717 91.0769 156.133 89.7066L156.59 89.2498L156.681 82.6725L154.306 83.7688C152.022 84.865 148.825 85.9612 148.825 88.5647ZM194.06 93.452C196.526 93.2236 197.805 92.3101 197.805 89.3412V80.1147C197.805 78.0593 197.394 76.826 196.572 75.9125C195.841 75.0447 194.745 74.5879 193.42 74.5879C191.319 74.5879 189.355 75.7298 187.757 77.4198C187.802 77.9223 187.848 78.516 187.848 79.1098V89.3412C187.848 92.3101 189.036 93.2236 191.274 93.452V94.8223H180.22V93.452C182.641 93.2236 183.92 92.3101 183.92 89.3412V80.1147C183.92 78.0593 183.509 76.826 182.687 75.9125C181.956 75.0447 180.86 74.5879 179.535 74.5879C177.48 74.5879 175.561 75.6385 173.963 77.3285V88.8388C173.963 91.8077 175.196 92.7212 177.525 92.9496V94.8223H166.38V92.9496C168.756 92.7212 170.034 91.8077 170.034 88.8388V76.7347L166.38 74.9533V73.6744L173.323 71.1623L173.963 71.482V75.0447C176.292 72.8523 178.85 71.3906 181.545 71.3906C183.463 71.3906 185.107 72.1671 186.249 73.4917C186.752 74.0855 187.117 74.725 187.391 75.5471C189.858 73.035 192.553 71.3906 195.43 71.3906C197.348 71.3906 198.993 72.1671 200.135 73.4917C201.14 74.6793 201.733 76.3236 201.733 79.1098V89.3412C201.733 92.3101 202.921 93.2236 205.159 93.452V94.8223H194.06V93.452ZM217.877 95.3704C211.985 95.3704 207.783 90.3004 207.783 83.6774C207.783 76.5063 212.076 71.345 217.648 71.345C222.399 71.345 226.098 75.6385 226.418 79.9777L225.779 80.7542L211.208 80.6171V81.3023C211.208 88.3363 215.639 91.5336 219.932 91.5336C222.033 91.5336 223.769 90.6658 225.094 89.0215L226.555 89.9806C224.5 93.2693 221.44 95.3704 217.877 95.3704ZM211.482 78.7444L221.531 78.6074C221.12 76.0952 219.521 73.5374 216.872 73.5374C213.538 73.5374 212.03 76.1409 211.482 78.7444ZM229.63 92.9496C232.006 92.7212 233.285 91.8077 233.285 88.8388V76.7347L229.585 74.9533V73.6744L236.573 71.1623L237.213 71.482V75.5471C238.857 73.309 241.049 71.5277 243.516 71.5277C244.932 71.5277 246.393 72.6696 246.302 74.862C246.256 76.3236 245.252 77.4198 244.018 77.4198C242.557 77.4198 242.146 74.999 241.141 74.999C239.633 74.999 238.309 76.7804 237.213 78.7444V88.8388C237.213 91.8077 238.811 92.7212 241.643 92.9496V94.8223H229.63V92.9496ZM256.673 95.4617C254.298 95.4617 252.197 94.5025 249.639 93.0866L249.776 87.1944L251.74 86.9204C252.38 90.9398 254.253 93.452 257.039 93.452C259.277 93.452 261.013 92.0817 261.058 89.9806C261.058 88.4733 259.825 87.0574 257.861 85.9155C256.628 85.1847 255.44 84.4082 254.207 83.7231C251.923 82.4898 249.822 80.5258 249.822 77.1915C249.822 73.9485 252.837 71.345 256.947 71.345C259.323 71.345 261.561 72.1215 263.525 73.2177V77.9679L261.561 78.2877L261.469 77.8309C260.647 74.999 259.277 73.2633 256.81 73.2633C254.892 73.2633 253.385 74.4966 253.385 76.0952C253.385 77.5569 254.161 78.6074 255.714 79.5666C256.719 80.2974 258.226 81.0739 259.551 81.8504C262.246 83.4947 264.347 85.0477 264.347 88.7474C264.347 92.7669 261.104 95.4617 256.673 95.4617Z" fill="white"/>
<path d="M12.4238 213.813C6.34892 213.813 1.96405 208.698 1.96405 201.983C1.96405 194.858 6.71432 189.697 12.7435 189.697C18.8184 189.697 23.1576 194.767 23.1576 201.39C23.1576 208.652 18.453 213.813 12.4238 213.813ZM13.3373 211.986C17.3111 211.986 19.1838 208.972 19.1838 204.13C19.1838 199.974 17.7678 191.432 12.1041 191.432C7.99324 191.432 6.25757 194.858 6.25757 199.197C6.25757 202.988 7.58216 211.986 13.3373 211.986ZM26.2642 211.804C28.411 211.621 29.4615 210.707 29.4615 208.698V192.574H25.8988L26.0359 190.701C28.274 190.519 29.5529 190.564 29.8726 187.778L30.0096 186.773C30.2837 184.49 31.0602 182.617 32.0194 181.338C33.5267 179.282 36.4042 177.73 39.1904 177.73C42.4334 177.73 44.3061 179.008 44.3061 180.972C44.3061 182.297 43.4383 183.165 42.1594 183.165C41.2002 183.165 40.241 182.206 39.7386 181.658C38.9621 180.744 38.414 179.831 37.1807 179.831C34.2118 179.831 33.2069 184.627 33.2069 188.007C33.2069 188.692 33.2069 189.605 33.2983 190.336H39.6015L39.4645 192.574H33.2983V208.195C33.2983 211.164 34.8056 211.438 37.7288 211.804V213.174H26.2642V211.804ZM84.2306 211.804C86.7428 211.575 88.0673 210.662 88.0673 207.693V198.512C88.0673 196.411 87.6563 195.178 86.8341 194.264C86.1033 193.396 84.9614 192.94 83.6368 192.94C81.49 192.94 79.5717 193.807 77.836 195.223C77.973 195.908 78.0187 196.594 78.0187 197.461V207.693C78.0187 210.662 79.2063 211.575 81.4444 211.804V213.174H70.4365V211.804C72.903 211.575 74.1819 210.662 74.1819 207.693V198.512C74.1819 196.411 73.7709 195.178 72.9487 194.264C72.2179 193.396 71.076 192.94 69.7514 192.94C67.696 192.94 65.7319 193.762 64.1333 194.995V207.693C64.1333 210.662 65.3209 211.575 67.696 211.804V213.174H56.5968V211.804C58.9719 211.575 60.2965 210.662 60.2965 207.693V194.584L56.5968 192.802V192.026L63.4938 189.514L64.1333 189.788V193.442C66.4171 191.204 68.9749 189.742 71.7155 189.742C73.6338 189.742 75.2782 190.519 76.42 191.843C76.9225 192.437 77.2422 193.031 77.5163 193.853C79.9371 191.295 82.5406 189.742 85.6009 189.742C87.5192 189.742 89.1636 190.519 90.3055 191.843C91.3103 193.031 91.9041 194.675 91.9041 197.461V207.693C91.9041 210.662 93.0917 211.575 95.3298 211.804V213.174H84.2306V211.804ZM108.414 213.813C102.339 213.813 97.9543 208.698 97.9543 201.983C97.9543 194.858 102.705 189.697 108.734 189.697C114.809 189.697 119.148 194.767 119.148 201.39C119.148 208.652 114.443 213.813 108.414 213.813ZM109.328 211.986C113.301 211.986 115.174 208.972 115.174 204.13C115.174 199.974 113.758 191.432 108.094 191.432C103.984 191.432 102.248 194.858 102.248 199.197C102.248 202.988 103.572 211.986 109.328 211.986ZM150.38 211.804C152.892 211.575 154.217 210.662 154.217 207.693V198.512C154.217 196.411 153.806 195.178 152.984 194.264C152.253 193.396 151.111 192.94 149.786 192.94C147.639 192.94 145.721 193.807 143.985 195.223C144.122 195.908 144.168 196.594 144.168 197.461V207.693C144.168 210.662 145.356 211.575 147.594 211.804V213.174H136.586V211.804C139.052 211.575 140.331 210.662 140.331 207.693V198.512C140.331 196.411 139.92 195.178 139.098 194.264C138.367 193.396 137.225 192.94 135.901 192.94C133.845 192.94 131.881 193.762 130.283 194.995V207.693C130.283 210.662 131.47 211.575 133.845 211.804V213.174H122.746V211.804C125.121 211.575 126.446 210.662 126.446 207.693V194.584L122.746 192.802V192.026L129.643 189.514L130.283 189.788V193.442C132.567 191.204 135.124 189.742 137.865 189.742C139.783 189.742 141.428 190.519 142.569 191.843C143.072 192.437 143.392 193.031 143.666 193.853C146.087 191.295 148.69 189.742 151.75 189.742C153.669 189.742 155.313 190.519 156.455 191.843C157.46 193.031 158.054 194.675 158.054 197.461V207.693C158.054 210.662 159.241 211.575 161.479 211.804V213.174H150.38V211.804ZM174.244 213.722C168.306 213.722 164.104 208.652 164.104 202.029C164.104 194.858 168.397 189.697 174.015 189.697C178.766 189.697 182.374 194.036 182.694 198.329L182.054 199.106L167.438 198.969V199.562C167.484 206.779 171.869 209.931 176.208 209.931C178.4 209.931 180.319 209.063 181.689 207.373L182.739 208.058C180.73 211.53 177.761 213.722 174.244 213.722ZM167.621 197.37L177.898 197.233C177.578 194.447 175.979 191.524 173.193 191.524C169.631 191.524 168.123 194.447 167.621 197.37ZM199.658 211.804C202.078 211.575 203.357 210.662 203.357 207.693V198.512C203.357 196.411 202.946 195.178 202.124 194.264C201.393 193.396 200.251 192.94 198.927 192.94C196.871 192.94 194.907 193.762 193.354 194.949V207.693C193.354 210.662 194.542 211.575 196.917 211.804V213.174H185.818V211.804C188.193 211.575 189.518 210.662 189.518 207.693V194.584L185.818 192.802V192.026L192.715 189.514L193.354 189.788V193.396C195.638 191.204 198.196 189.742 200.891 189.742C202.809 189.742 204.454 190.519 205.596 191.843C206.6 193.031 207.194 194.675 207.194 197.461V207.693C207.194 210.662 208.382 211.575 210.62 211.804V213.174H199.658V211.804ZM219.927 213.813C218.694 213.813 217.598 213.448 217.004 212.854C216.319 212.169 215.908 210.844 215.908 208.287V192.574H212.482L212.619 191.158C215.314 189.651 217.05 188.052 218.694 185.723L219.882 185.814L219.745 190.336H226.139L226.002 192.574H219.745V208.058C219.745 209.474 219.927 210.205 220.43 210.662C220.749 210.981 221.48 211.301 222.394 211.301C223.581 211.301 224.815 211.164 225.637 211.027L225.957 212.717C224.815 213.174 222.942 213.813 219.927 213.813ZM236.991 213.813C234.616 213.813 232.561 212.854 230.003 211.438L230.14 205.546L231.647 205.318C232.287 209.428 234.388 212.078 237.357 212.078C239.595 212.078 241.33 210.616 241.376 208.332C241.376 206.825 240.188 205.363 238.224 204.221C236.991 203.491 235.804 202.714 234.57 202.029C232.378 200.841 230.231 198.832 230.231 195.543C230.231 192.3 233.246 189.697 237.311 189.697C239.64 189.697 241.924 190.473 243.888 191.569L243.842 196.274L242.381 196.502L242.244 196.045C241.376 193.031 239.869 191.341 237.174 191.341C235.255 191.341 233.748 192.711 233.748 194.447C233.748 195.954 234.525 197.005 236.032 197.964C237.037 198.695 238.498 199.425 239.823 200.202C242.564 201.892 244.619 203.399 244.619 207.099C244.619 211.118 241.422 213.813 236.991 213.813Z" fill="white"/>
</svg>
