<svg width="763" height="204" viewBox="0 0 763 204" fill="none" xmlns="http://www.w3.org/2000/svg">
<path d="M2.78555 41.959C5.94376 41.677 7.63565 40.5491 7.63565 36.8833V10.1514C7.63565 6.4856 5.94376 5.35767 2.78555 5.07569V2.65064H34.142L34.5932 11.9561L32.1681 12.4072L31.7169 11.5049C29.1791 6.37281 27.882 5.86524 21.1708 5.86524L13.3881 5.75245V21.8818H13.4445C15.2492 21.8818 17.1103 21.8254 18.9149 21.7127C22.1859 21.4307 24.1034 20.6975 24.7802 16.2422L27.318 16.1294L27.6 30.5105L25.1186 30.7361C24.1598 25.3784 22.0731 24.8145 18.5202 24.7581L14.1212 24.7017H13.3881V36.8833C13.3881 40.5491 15.08 41.677 19.1969 41.959V44.384H2.78555V41.959ZM49.3052 45.1736C41.748 45.1736 36.2776 38.8572 36.2776 30.5669C36.2776 21.769 42.2556 15.3962 49.6999 15.3962C57.3698 15.3962 62.7839 21.6563 62.7839 29.8337C62.7839 38.8008 56.9187 45.1736 49.3052 45.1736ZM50.2075 42.4666C54.8884 42.4666 57.2007 38.8572 57.2007 32.9919C57.2007 28.4238 55.7344 18.1033 48.7976 18.1033C44.1731 18.1033 41.8608 21.6563 41.8608 27.5779C41.8608 32.2588 43.3835 42.4666 50.2075 42.4666ZM67.6177 41.959C70.5503 41.677 72.1294 40.5491 72.1294 36.8833V22.2766L67.6177 20.0772V18.4417L76.4156 15.2271L77.3179 15.6782V20.6411C79.3482 17.8213 81.9988 15.6218 85.0442 15.6218C86.9053 15.6218 88.71 17.0317 88.5972 19.7952C88.5408 21.5999 87.3001 23.0662 85.7774 23.0662C83.8599 23.0662 83.3523 20.1899 82.0552 20.1899C80.2505 20.1899 78.7278 22.1074 77.3179 24.5889V36.8833C77.3179 40.5491 79.179 41.677 82.6756 41.959V44.384H67.6177V41.959ZM141.919 42.5229C144.795 42.241 146.318 41.113 146.318 37.4473V26.3936C146.318 23.8557 145.866 22.3894 144.908 21.3179C144.005 20.2463 142.652 19.6824 141.016 19.6824C138.479 19.6824 136.166 21.0359 134.249 22.9534C134.305 23.5173 134.362 24.2505 134.362 24.9836V37.4473C134.362 41.113 135.828 42.241 138.535 42.5229V44.384H124.718V42.5229C127.594 42.241 129.173 41.113 129.173 37.4473V26.3936C129.173 23.8557 128.722 22.3894 127.763 21.3179C126.861 20.2463 125.507 19.6824 123.872 19.6824C121.39 19.6824 119.135 20.9231 117.217 22.8406V36.8833C117.217 40.5491 118.796 41.677 121.503 41.959V44.384H107.573V41.959C110.506 41.677 112.029 40.5491 112.029 36.8833V22.2766L107.573 20.0772V18.4417L116.371 15.2271L117.217 15.6782V20.0208C120.093 17.2573 123.252 15.4526 126.579 15.4526C128.948 15.4526 130.978 16.4114 132.388 18.0469C133.008 18.78 133.459 19.5696 133.798 20.6411C136.843 17.4829 140.17 15.4526 143.723 15.4526C146.092 15.4526 148.122 16.4114 149.532 18.0469C150.773 19.5132 151.506 21.5435 151.506 24.9836V37.4473C151.506 41.113 152.972 42.241 155.679 42.5229V44.384H141.919V42.5229ZM172.45 45.1736C164.893 45.1736 159.422 38.8572 159.422 30.5669C159.422 21.769 165.4 15.3962 172.845 15.3962C180.515 15.3962 185.929 21.6563 185.929 29.8337C185.929 38.8008 180.063 45.1736 172.45 45.1736ZM173.352 42.4666C178.033 42.4666 180.345 38.8572 180.345 32.9919C180.345 28.4238 178.879 18.1033 171.942 18.1033C167.318 18.1033 165.006 21.6563 165.006 27.5779C165.006 32.2588 166.528 42.4666 173.352 42.4666ZM190.762 41.959C193.695 41.677 195.274 40.5491 195.274 36.8833V22.2766L190.762 20.0772V18.4417L199.56 15.2271L200.463 15.6782V20.6411C202.493 17.8213 205.144 15.6218 208.189 15.6218C210.05 15.6218 211.855 17.0317 211.742 19.7952C211.686 21.5999 210.445 23.0662 208.922 23.0662C207.005 23.0662 206.497 20.1899 205.2 20.1899C203.395 20.1899 201.873 22.1074 200.463 24.5889V36.8833C200.463 40.5491 202.324 41.677 205.82 41.959V44.384H190.762V41.959ZM232.263 42.5229C235.196 42.241 236.775 41.113 236.775 37.4473V26.3936C236.775 23.8557 236.267 22.3894 235.309 21.3179C234.406 20.2463 233.053 19.6824 231.417 19.6824C228.992 19.6824 226.68 20.9795 224.763 22.897V37.4473C224.763 41.113 226.342 42.241 229.049 42.5229V44.384H215.119V42.5229C218.051 42.241 219.574 41.113 219.574 37.4473V21.769L215.119 19.5696V18.4417L223.917 15.2271L224.763 15.6782V20.0208C227.639 17.2573 230.797 15.4526 234.181 15.4526C236.549 15.4526 238.58 16.4114 239.99 18.0469C241.23 19.5132 241.963 21.5435 241.963 24.9836V37.4473C241.963 41.113 243.373 42.241 246.08 42.5229V44.384H232.263V42.5229ZM249.333 41.959C252.266 41.677 253.845 40.5491 253.845 36.8833V22.2766L249.333 20.0772V18.4417L258.131 15.2271L259.034 15.6782V36.8833C259.034 40.5491 260.556 41.677 263.32 41.959V44.384H249.333V41.959ZM256.214 7.95191C254.014 7.95191 252.266 6.20362 252.266 3.94776C252.266 1.80469 254.014 5.61812e-06 256.214 5.61812e-06C258.413 5.61812e-06 260.161 1.80469 260.161 3.94776C260.161 6.20362 258.413 7.95191 256.214 7.95191ZM284.39 42.5229C287.323 42.241 288.902 41.113 288.902 37.4473V26.3936C288.902 23.8557 288.394 22.3894 287.436 21.3179C286.533 20.2463 285.18 19.6824 283.544 19.6824C281.119 19.6824 278.807 20.9795 276.89 22.897V37.4473C276.89 41.113 278.469 42.241 281.176 42.5229V44.384H267.246V42.5229C270.178 42.241 271.701 41.113 271.701 37.4473V21.769L267.246 19.5696V18.4417L276.044 15.2271L276.89 15.6782V20.0208C279.766 17.2573 282.924 15.4526 286.308 15.4526C288.676 15.4526 290.707 16.4114 292.117 18.0469C293.357 19.5132 294.091 21.5435 294.091 24.9836V37.4473C294.091 41.113 295.5 42.241 298.207 42.5229V44.384H284.39V42.5229ZM311.399 57.5808C304.914 57.5808 300.176 54.8738 300.176 50.7568C300.176 48.3318 302.489 46.6963 305.309 44.5532C303.447 43.8765 302.207 42.4102 302.207 40.6055C302.207 38.2932 304.293 36.1501 306.944 33.7251C304.181 32.0332 302.376 29.0442 302.376 25.3784C302.376 19.7952 306.944 15.4526 313.204 15.4526C315.516 15.4526 317.039 15.9602 318.731 16.2422C321.494 16.6934 323.637 16.9189 327.36 16.9189V20.3027C325.555 20.3027 323.75 20.2463 321.833 19.908C323.017 21.3743 323.694 23.2354 323.694 25.322C323.694 30.9617 319.013 35.2478 312.697 35.2478C311.456 35.2478 310.159 35.0222 309.144 34.6838C307.734 35.8682 306.662 36.8833 306.662 37.9548C306.662 38.97 307.903 39.7031 310.61 39.7595C312.358 39.8159 314.727 39.7595 316.306 39.7595C321.833 39.7595 326.796 41.9026 326.852 47.0911C326.852 53.9714 318.562 57.5808 311.399 57.5808ZM313.486 32.71C316.757 32.71 318.562 30.2849 318.562 26.5627C318.562 23.9685 317.434 17.8777 312.809 17.8777C309.595 17.8777 307.734 20.3027 307.734 23.9685C307.734 26.5627 308.805 32.71 313.486 32.71ZM304.519 49.9673C304.519 52.6179 307.564 54.5918 312.753 54.5918C317.152 54.5918 322.622 53.1255 322.622 49.0649C322.622 46.4707 320.705 45.2864 317.208 45.1736C314.106 45.0608 311.005 45.1172 308.241 45.0044C305.985 46.9219 304.519 48.3318 304.519 49.9673ZM341.698 45.1736C338.709 45.1736 336.059 43.9893 332.844 42.241L332.957 34.9658L335.438 34.6274C336.341 39.4775 338.597 42.5229 342.15 42.5229C344.8 42.5229 346.887 41.0002 346.943 38.406C346.943 36.5449 345.533 34.9094 343.165 33.5559C341.586 32.6536 340.006 31.6948 338.427 30.8489C335.551 29.3262 332.957 26.9011 332.957 22.7842C332.957 18.6672 336.792 15.3962 341.924 15.3962C344.913 15.3962 347.733 16.355 350.158 17.7085V23.5737L347.733 23.9685L347.564 23.4045C346.548 20.0208 344.8 17.9341 341.755 17.9341C339.443 17.9341 337.581 19.4004 337.581 21.2615C337.581 23.0662 338.484 24.2505 340.458 25.4348C341.755 26.3372 343.616 27.2395 345.364 28.1982C348.748 30.2285 351.286 32.146 351.286 36.7141C351.286 41.7898 347.225 45.1736 341.698 45.1736ZM359.495 51.8284C361.695 50.8696 365.304 49.2905 365.304 46.5271C365.304 44.384 362.823 44.1584 361.526 43.4253C360.398 42.8049 359.89 41.959 359.89 40.6619C359.89 38.9136 361.131 37.2217 363.5 37.2217C365.925 37.2217 368.97 39.4211 368.97 43.8765C368.97 49.2341 364.966 52.3359 360.285 54.0278L359.495 51.8284Z" fill="#FDFDF4"/>
<path d="M485.607 117.835C483.464 117.835 481.998 116.369 481.659 113.831C478.952 116.256 476.866 117.948 473.482 117.948C469.365 117.948 466.714 114.564 466.714 111.18C466.714 105.315 471.734 103.511 477.712 101.593L479.291 101.085L481.603 100.352V99.45C481.603 95.333 481.208 93.4719 480.137 92.344C479.291 91.4417 478.106 91.1597 476.922 91.1597C474.948 91.1597 472.072 92.5132 472.072 94.2615C472.072 95.1074 472.354 95.2766 472.692 95.7842L473.031 96.2918C473.482 96.9685 473.595 97.2505 473.595 97.7017C473.595 97.9836 473.369 98.2656 472.974 98.4912L470.775 99.6191C470.042 100.014 469.703 100.183 469.365 100.183C469.083 100.183 468.745 100.014 468.35 99.3372C467.673 98.2092 467.391 97.3069 467.391 96.2354C467.448 91.4417 473.708 88.3962 478.219 88.3962C480.926 88.3962 483.013 88.9038 484.705 90.3137C486.058 91.4417 486.735 93.2463 486.735 96.9685L486.622 110.447C486.622 112.421 487.13 113.323 488.314 113.323C488.878 113.323 489.273 113.098 489.499 112.872L491.021 114.564C489.555 116.482 488.371 117.835 485.607 117.835ZM472.185 109.545C472.185 111.914 473.933 113.549 476.245 113.549C477.712 113.549 479.291 112.59 481.039 110.898L481.49 110.447L481.603 102.439L478.84 103.736C476.02 105.09 472.185 106.387 472.185 109.545ZM494.309 114.959C497.186 114.733 498.821 113.549 498.821 111.011V92.5696H493.689L493.915 89.637C497.016 89.4114 498.878 89.4114 499.272 85.9712L499.442 84.7305C499.78 81.9107 500.682 79.7112 501.923 78.0757C503.953 75.3687 507.788 73.6204 511.567 73.6204C516.135 73.6204 518.729 75.3123 518.729 77.9065C518.729 79.5984 517.545 80.7263 515.966 80.7263C514.669 80.7263 514.105 80.1624 513.089 78.978C511.962 77.6245 511.172 76.6658 509.142 76.6658C505.138 76.6658 503.897 82.0234 503.897 85.802C503.897 86.9299 503.897 88.0579 504.01 89.1858H511.51L511.285 92.5696H504.01V110.447C504.01 114.113 505.871 114.508 509.931 114.959V117.384H494.309V114.959ZM524.274 118.174C522.526 118.174 521.116 117.666 520.383 116.933C519.481 116.031 518.917 114.451 518.917 111.293V92.5696H514.631L514.856 90.2009C518.353 88.2835 520.609 86.2532 522.695 83.3206L524.274 83.5461L524.105 89.1858H532.001L531.775 92.5696H524.105V110.222C524.105 111.97 524.331 112.872 524.951 113.436C525.459 113.944 526.248 114.226 527.376 114.226C528.786 114.226 530.253 114.057 531.268 113.887L531.775 116.764C530.422 117.328 527.997 118.174 524.274 118.174ZM547.952 118.061C540.621 118.061 535.432 111.801 535.432 103.623C535.432 94.769 540.733 88.3962 547.67 88.3962C553.592 88.3962 558.216 93.7539 558.611 99.168L557.822 100.127L540 99.9575V100.521C540 109.263 545.358 113.154 550.659 113.154C553.197 113.154 555.34 112.026 556.976 109.996L558.837 111.293C556.242 115.41 552.408 118.061 547.952 118.061ZM540.282 97.5889L552.295 97.4197C551.844 94.3179 549.926 91.2161 546.711 91.2161C542.651 91.2161 540.903 94.3743 540.282 97.5889ZM563.027 114.959C565.96 114.677 567.539 113.549 567.539 109.883V95.2766L563.027 93.0772V91.4417L571.825 88.2271L572.727 88.6782V93.6411C574.758 90.8213 577.408 88.6218 580.454 88.6218C582.315 88.6218 584.12 90.0317 584.007 92.7952C583.95 94.5999 582.71 96.0662 581.187 96.0662C579.269 96.0662 578.762 93.1899 577.465 93.1899C575.66 93.1899 574.137 95.1074 572.727 97.5889V109.883C572.727 113.549 574.589 114.677 578.085 114.959V117.384H563.027V114.959ZM604.528 115.523C607.461 115.241 609.04 114.113 609.04 110.447V99.3936C609.04 96.8557 608.532 95.3894 607.573 94.3179C606.671 93.2463 605.318 92.6824 603.682 92.6824C601.257 92.6824 598.945 93.9795 597.027 95.897V110.447C597.027 114.113 598.606 115.241 601.313 115.523V117.384H587.383V115.523C590.316 115.241 591.839 114.113 591.839 110.447V94.769L587.383 92.5696V91.4417L596.181 88.2271L597.027 88.6782V93.0208C599.903 90.2573 603.062 88.4526 606.445 88.4526C608.814 88.4526 610.844 89.4114 612.254 91.0469C613.495 92.5132 614.228 94.5435 614.228 97.9836V110.447C614.228 114.113 615.638 115.241 618.345 115.523V117.384H604.528V115.523ZM635.077 118.174C627.52 118.174 622.049 111.857 622.049 103.567C622.049 94.769 628.027 88.3962 635.472 88.3962C643.142 88.3962 648.556 94.6563 648.556 102.834C648.556 111.801 642.69 118.174 635.077 118.174ZM635.979 115.467C640.66 115.467 642.972 111.857 642.972 105.992C642.972 101.424 641.506 91.1033 634.569 91.1033C629.945 91.1033 627.632 94.6563 627.632 100.578C627.632 105.259 629.155 115.467 635.979 115.467ZM666.868 118.174C659.311 118.174 653.841 111.857 653.841 103.567C653.841 94.769 659.819 88.3962 667.263 88.3962C674.933 88.3962 680.347 94.6563 680.347 102.834C680.347 111.801 674.482 118.174 666.868 118.174ZM667.77 115.467C672.451 115.467 674.764 111.857 674.764 105.992C674.764 101.424 673.297 91.1033 666.361 91.1033C661.736 91.1033 659.424 94.6563 659.424 100.578C659.424 105.259 660.947 115.467 667.77 115.467ZM702.325 115.523C705.258 115.241 706.837 114.113 706.837 110.447V99.3936C706.837 96.8557 706.329 95.3894 705.371 94.3179C704.468 93.2463 703.115 92.6824 701.479 92.6824C699.054 92.6824 696.742 93.9795 694.824 95.897V110.447C694.824 114.113 696.404 115.241 699.111 115.523V117.384H685.181V115.523C688.113 115.241 689.636 114.113 689.636 110.447V94.769L685.181 92.5696V91.4417L693.979 88.2271L694.824 88.6782V93.0208C697.701 90.2573 700.859 88.4526 704.243 88.4526C706.611 88.4526 708.642 89.4114 710.052 91.0469C711.292 92.5132 712.025 94.5435 712.025 97.9836V110.447C712.025 114.113 713.435 115.241 716.142 115.523V117.384H702.325V115.523ZM729.659 118.174C726.67 118.174 724.02 116.989 720.805 115.241L720.918 107.966L723.399 107.627C724.302 112.478 726.558 115.523 730.111 115.523C732.761 115.523 734.848 114 734.904 111.406C734.904 109.545 733.494 107.909 731.126 106.556C729.547 105.654 727.968 104.695 726.388 103.849C723.512 102.326 720.918 99.9011 720.918 95.7842C720.918 91.6672 724.753 88.3962 729.885 88.3962C732.874 88.3962 735.694 89.355 738.119 90.7085V96.5737L735.694 96.9685L735.525 96.4045C734.51 93.0208 732.761 90.9341 729.716 90.9341C727.404 90.9341 725.542 92.4004 725.542 94.2615C725.542 96.0662 726.445 97.2505 728.419 98.4348C729.716 99.3372 731.577 100.24 733.325 101.198C736.709 103.229 739.247 105.146 739.247 109.714C739.247 114.79 735.186 118.174 729.659 118.174ZM747.456 124.828C749.656 123.87 753.265 122.291 753.265 119.527C753.265 117.384 750.784 117.158 749.487 116.425C748.359 115.805 747.851 114.959 747.851 113.662C747.851 111.914 749.092 110.222 751.461 110.222C753.886 110.222 756.931 112.421 756.931 116.876C756.931 122.234 752.927 125.336 748.246 127.028L747.456 124.828Z" fill="#FDFDF4"/>
<path d="M166.336 190.835C164.193 190.835 162.727 189.369 162.388 186.831C159.681 189.256 157.595 190.948 154.211 190.948C150.094 190.948 147.443 187.564 147.443 184.18C147.443 178.315 152.463 176.511 158.441 174.593L160.02 174.085L162.332 173.352V172.45C162.332 168.333 161.937 166.472 160.866 165.344C160.02 164.442 158.835 164.16 157.651 164.16C155.677 164.16 152.801 165.513 152.801 167.261C152.801 168.107 153.083 168.277 153.421 168.784L153.76 169.292C154.211 169.969 154.324 170.25 154.324 170.702C154.324 170.984 154.098 171.266 153.703 171.491L151.504 172.619C150.771 173.014 150.432 173.183 150.094 173.183C149.812 173.183 149.474 173.014 149.079 172.337C148.402 171.209 148.12 170.307 148.12 169.235C148.177 164.442 154.437 161.396 158.948 161.396C161.655 161.396 163.742 161.904 165.434 163.314C166.787 164.442 167.464 166.246 167.464 169.969L167.351 183.447C167.351 185.421 167.859 186.323 169.043 186.323C169.607 186.323 170.002 186.098 170.228 185.872L171.75 187.564C170.284 189.482 169.1 190.835 166.336 190.835ZM152.914 182.545C152.914 184.914 154.662 186.549 156.974 186.549C158.441 186.549 160.02 185.59 161.768 183.898L162.219 183.447L162.332 175.439L159.569 176.736C156.749 178.09 152.914 179.387 152.914 182.545ZM192.183 188.523C195.116 188.241 196.695 187.113 196.695 183.447V172.394C196.695 169.856 196.187 168.389 195.228 167.318C194.326 166.246 192.972 165.682 191.337 165.682C188.912 165.682 186.6 166.979 184.682 168.897V183.447C184.682 187.113 186.261 188.241 188.968 188.523V190.384H175.038V188.523C177.971 188.241 179.494 187.113 179.494 183.447V167.769L175.038 165.57V164.442L183.836 161.227L184.682 161.678V166.021C187.558 163.257 190.717 161.453 194.1 161.453C196.469 161.453 198.499 162.411 199.909 164.047C201.15 165.513 201.883 167.543 201.883 170.984V183.447C201.883 187.113 203.293 188.241 206 188.523V190.384H192.183V188.523ZM231.191 191.23L230.345 190.835L230.571 186.267C227.977 189.2 225.1 191.117 221.096 191.117C214.667 191.117 209.704 185.196 209.704 176.849C209.704 168.389 215.513 161.396 224.536 161.396C226.792 161.396 228.823 161.96 230.514 162.919V153.67L226.228 151.47V149.722L234.801 146.62L235.703 147.015V182.489C235.703 185.647 237.113 186.605 239.876 186.831V189.256C236.831 189.651 233.955 190.271 231.191 191.23ZM215.005 175.044C215.005 180.571 217.318 186.38 223.634 186.38C226.567 186.38 228.766 185.365 230.514 183.391V173.465C230.514 169.687 229.725 167.6 228.371 166.246C227.187 165.006 225.608 164.385 223.634 164.385C218.22 164.385 215.005 168.897 215.005 175.044ZM269.942 203.581C263.457 203.581 258.719 200.874 258.719 196.757C258.719 194.332 261.032 192.696 263.851 190.553C261.99 189.876 260.75 188.41 260.75 186.605C260.75 184.293 262.836 182.15 265.487 179.725C262.723 178.033 260.919 175.044 260.919 171.378C260.919 165.795 265.487 161.453 271.747 161.453C274.059 161.453 275.582 161.96 277.274 162.242C280.037 162.693 282.18 162.919 285.902 162.919V166.303C284.098 166.303 282.293 166.246 280.376 165.908C281.56 167.374 282.237 169.235 282.237 171.322C282.237 176.962 277.556 181.248 271.239 181.248C269.999 181.248 268.702 181.022 267.686 180.684C266.276 181.868 265.205 182.883 265.205 183.955C265.205 184.97 266.446 185.703 269.153 185.76C270.901 185.816 273.27 185.76 274.849 185.76C280.376 185.76 285.338 187.903 285.395 193.091C285.395 199.971 277.105 203.581 269.942 203.581ZM272.029 178.71C275.3 178.71 277.105 176.285 277.105 172.563C277.105 169.969 275.977 163.878 271.352 163.878C268.138 163.878 266.276 166.303 266.276 169.969C266.276 172.563 267.348 178.71 272.029 178.71ZM263.062 195.967C263.062 198.618 266.107 200.592 271.296 200.592C275.695 200.592 281.165 199.125 281.165 195.065C281.165 192.471 279.248 191.286 275.751 191.174C272.649 191.061 269.547 191.117 266.784 191.004C264.528 192.922 263.062 194.332 263.062 195.967ZM302.575 191.174C295.018 191.174 289.547 184.857 289.547 176.567C289.547 167.769 295.525 161.396 302.969 161.396C310.639 161.396 316.053 167.656 316.053 175.834C316.053 184.801 310.188 191.174 302.575 191.174ZM303.477 188.467C308.158 188.467 310.47 184.857 310.47 178.992C310.47 174.424 309.004 164.103 302.067 164.103C297.443 164.103 295.13 167.656 295.13 173.578C295.13 178.259 296.653 188.467 303.477 188.467ZM319.786 187.959C322.718 187.677 324.297 186.549 324.297 182.883V153.67L320.011 151.47V149.722L328.584 146.62L329.486 147.015V182.883C329.486 186.549 330.952 187.677 333.659 187.959V190.384H319.786V187.959ZM359.416 191.23L358.57 190.835L358.796 186.267C356.202 189.2 353.325 191.117 349.321 191.117C342.892 191.117 337.929 185.196 337.929 176.849C337.929 168.389 343.738 161.396 352.761 161.396C355.017 161.396 357.047 161.96 358.739 162.919V153.67L354.453 151.47V149.722L363.025 146.62L363.928 147.015V182.489C363.928 185.647 365.338 186.605 368.101 186.831V189.256C365.056 189.651 362.18 190.271 359.416 191.23ZM343.23 175.044C343.23 180.571 345.543 186.38 351.859 186.38C354.792 186.38 356.991 185.365 358.739 183.391V173.465C358.739 169.687 357.95 167.6 356.596 166.246C355.412 165.006 353.833 164.385 351.859 164.385C346.445 164.385 343.23 168.897 343.23 175.044ZM384.388 191.061C377.057 191.061 371.868 184.801 371.868 176.623C371.868 167.769 377.17 161.396 384.106 161.396C390.028 161.396 394.652 166.754 395.047 172.168L394.258 173.127L376.436 172.958V173.521C376.436 182.263 381.794 186.154 387.095 186.154C389.633 186.154 391.776 185.026 393.412 182.996L395.273 184.293C392.679 188.41 388.844 191.061 384.388 191.061ZM376.718 170.589L388.731 170.42C388.28 167.318 386.362 164.216 383.148 164.216C379.087 164.216 377.339 167.374 376.718 170.589ZM416.608 188.523C419.54 188.241 421.12 187.113 421.12 183.447V172.394C421.12 169.856 420.612 168.389 419.653 167.318C418.751 166.246 417.397 165.682 415.762 165.682C413.337 165.682 411.025 166.979 409.107 168.897V183.447C409.107 187.113 410.686 188.241 413.393 188.523V190.384H399.463V188.523C402.396 188.241 403.919 187.113 403.919 183.447V167.769L399.463 165.57V164.442L408.261 161.227L409.107 161.678V166.021C411.983 163.257 415.142 161.453 418.525 161.453C420.894 161.453 422.924 162.411 424.334 164.047C425.575 165.513 426.308 167.543 426.308 170.984V183.447C426.308 187.113 427.718 188.241 430.425 188.523V190.384H416.608V188.523ZM465.981 188.523C468.914 188.241 470.493 187.113 470.493 183.447V172.394C470.493 169.856 469.929 168.333 469.027 167.318C468.124 166.246 466.771 165.682 465.135 165.682C462.71 165.682 460.454 166.923 458.537 168.841V182.883C458.537 186.549 460.06 187.677 462.767 187.959V190.384H448.837V187.959C451.769 187.677 453.348 186.549 453.348 182.883V153.67L449.062 151.47V149.722L457.635 146.62L458.537 147.015V166.021C461.413 163.257 464.515 161.453 467.899 161.453C470.267 161.453 472.298 162.411 473.708 164.047C474.948 165.513 475.681 167.543 475.681 170.984V183.447C475.681 187.113 477.091 188.241 479.798 188.523V190.384H465.981V188.523ZM496.53 191.174C488.973 191.174 483.502 184.857 483.502 176.567C483.502 167.769 489.48 161.396 496.925 161.396C504.595 161.396 510.009 167.656 510.009 175.834C510.009 184.801 504.144 191.174 496.53 191.174ZM497.432 188.467C502.113 188.467 504.426 184.857 504.426 178.992C504.426 174.424 502.959 164.103 496.022 164.103C491.398 164.103 489.086 167.656 489.086 173.578C489.086 178.259 490.608 188.467 497.432 188.467ZM525.614 191.117C523.246 191.117 521.215 190.158 519.805 188.523C518.565 187.057 517.832 185.026 517.832 181.586V169.687C517.832 166.021 516.422 164.893 513.715 164.611V162.186L523.02 161.622V180.176C523.02 182.376 523.471 183.842 524.317 184.857C525.22 185.985 526.573 186.605 528.378 186.605C530.859 186.605 533.115 185.308 535.033 183.278V169.687C535.033 166.021 533.51 164.893 530.746 164.611V162.186L540.221 161.622V181.925C540.221 185.647 541.631 186.605 544.394 186.831V189.256C541.349 189.651 538.473 190.271 535.709 191.23L534.863 190.835L535.089 186.436C532.156 189.256 529.055 191.117 525.614 191.117ZM548.066 187.959C550.998 187.677 552.578 186.549 552.578 182.883V168.277L548.066 166.077V164.442L556.864 161.227L557.766 161.678V166.641C559.796 163.821 562.447 161.622 565.492 161.622C567.353 161.622 569.158 163.032 569.045 165.795C568.989 167.6 567.748 169.066 566.226 169.066C564.308 169.066 563.8 166.19 562.503 166.19C560.699 166.19 559.176 168.107 557.766 170.589V182.883C557.766 186.549 559.627 187.677 563.124 187.959V190.384H548.066V187.959ZM582.576 191.174C579.587 191.174 576.936 189.989 573.722 188.241L573.835 180.966L576.316 180.627C577.218 185.478 579.474 188.523 583.027 188.523C585.678 188.523 587.765 187 587.821 184.406C587.821 182.545 586.411 180.909 584.042 179.556C582.463 178.654 580.884 177.695 579.305 176.849C576.429 175.326 573.835 172.901 573.835 168.784C573.835 164.667 577.67 161.396 582.802 161.396C585.791 161.396 588.611 162.355 591.036 163.709V169.574L588.611 169.969L588.441 169.405C587.426 166.021 585.678 163.934 582.632 163.934C580.32 163.934 578.459 165.4 578.459 167.261C578.459 169.066 579.361 170.25 581.335 171.435C582.632 172.337 584.494 173.24 586.242 174.198C589.626 176.229 592.163 178.146 592.163 182.714C592.163 187.79 588.103 191.174 582.576 191.174ZM604.208 190.722C602.009 190.722 600.373 189.031 600.373 186.887C600.373 184.801 602.009 183.109 604.208 183.109C606.351 183.109 607.987 184.801 607.987 186.887C607.987 189.031 606.351 190.722 604.208 190.722Z" fill="#FDFDF4"/>
</svg>
