<svg width="370" height="215" viewBox="0 0 370 215" fill="none" xmlns="http://www.w3.org/2000/svg">
<path d="M219.529 27.6796C219.529 22.701 215.555 19.5493 209.663 19.5493C209.024 19.5493 208.43 19.595 207.791 19.6407V29.6893C207.791 31.9731 208.156 32.5669 208.658 33.115C209.389 33.9372 210.577 34.3026 212.175 34.3026C216.697 34.3026 219.529 31.7448 219.529 27.6796ZM207.791 17.4939C208.384 17.5853 209.024 17.631 209.892 17.631C214.779 17.631 218.342 16.215 218.342 11.5561C218.342 7.26259 215.053 4.52205 210.166 4.52205C209.481 4.52205 208.476 4.65907 207.791 4.75043V17.4939ZM199.569 34.805C202.127 34.5766 203.497 33.6631 203.497 30.6942V7.85637C203.497 4.88745 202.127 3.97394 199.569 3.74556V2.37529H210.805C215.967 2.37529 218.113 3.47151 219.803 4.65907C221.813 6.12069 223.092 8.26745 223.092 10.7796C223.092 15.2102 218.935 17.6766 214.596 18.5445C219.347 18.8185 224.279 22.2442 224.279 27.4056C224.279 29.9177 222.955 32.2015 220.899 33.8002C218.068 36.0383 214.962 36.1753 210.485 36.1753H199.569V34.805ZM237.585 36.7691C235.666 36.7691 234.022 35.9926 232.88 34.668C231.875 33.4804 231.281 31.8361 231.281 29.0499V18.7729C231.281 15.8039 230.048 14.8904 227.81 14.662V13.2918L235.118 12.835V27.9993C235.118 30.1004 235.529 31.3337 236.351 32.2472C237.082 33.1607 238.178 33.5718 239.503 33.5718C241.604 33.5718 243.477 32.7953 245.121 31.5164V18.7729C245.121 15.8039 243.888 14.8904 241.604 14.662V13.2918L248.958 12.835V29.9177C248.958 32.9323 250.1 33.7088 252.338 33.8915V35.2618C250.008 35.5815 247.77 36.0839 245.669 36.8604L244.984 36.5407L245.167 33.0693C242.837 35.3075 240.28 36.7691 237.585 36.7691ZM255.532 34.805C257.907 34.5766 259.186 33.6631 259.186 30.6942V17.5853L255.532 15.8039V15.0275L262.429 12.5153L263.023 12.7893V30.6942C263.023 33.6631 264.256 34.5766 266.495 34.805V36.1753H255.532V34.805ZM261.013 6.12069C259.278 6.12069 257.907 4.75043 257.907 3.06043C257.907 1.37043 259.278 0.000153266 261.013 0.000153266C262.658 0.000153266 264.028 1.37043 264.028 3.06043C264.028 4.75043 262.658 6.12069 261.013 6.12069ZM269.36 34.805C271.735 34.5766 273.014 33.6631 273.014 30.6942V5.80097L269.543 4.01961V3.19745L276.257 0.730966L276.851 1.00502V30.6942C276.851 33.6631 278.038 34.5766 280.231 34.805V36.1753H269.36V34.805ZM289.865 36.8148C288.632 36.8148 287.535 36.4493 286.942 35.8556C286.256 35.1704 285.845 33.8458 285.845 31.288V15.5756H282.42L282.557 14.1596C285.252 12.6523 286.987 11.0537 288.632 8.72421L289.819 8.81556L289.682 13.3375H296.077L295.94 15.5756H289.682V31.0596C289.682 32.4756 289.865 33.2064 290.367 33.6631C290.687 33.9829 291.418 34.3026 292.331 34.3026C293.519 34.3026 294.752 34.1656 295.574 34.0285L295.894 35.7185C294.752 36.1753 292.879 36.8148 289.865 36.8148ZM310.842 34.805C312.988 34.6223 314.039 33.7088 314.039 31.6991V15.5756H310.476L310.613 13.7029C312.851 13.5202 314.13 13.5658 314.45 10.7796L314.587 9.77475C314.861 7.49097 315.638 5.61826 316.597 4.33934C318.104 2.28394 320.982 0.730966 323.768 0.730966C327.011 0.730966 328.884 2.00988 328.884 3.97394C328.884 5.29853 328.016 6.16637 326.737 6.16637C325.778 6.16637 324.818 5.20718 324.316 4.65907C323.54 3.74556 322.991 2.83205 321.758 2.83205C318.789 2.83205 317.784 7.62799 317.784 11.008C317.784 11.6931 317.784 12.6066 317.876 13.3375H324.179L324.042 15.5756H317.876V31.1966C317.876 34.1656 319.383 34.4396 322.306 34.805V36.1753H310.842V34.805ZM336.566 36.8148C330.491 36.8148 326.106 31.6991 326.106 24.9848C326.106 17.8593 330.857 12.698 336.886 12.698C342.961 12.698 347.3 17.768 347.3 24.391C347.3 31.6534 342.595 36.8148 336.566 36.8148ZM337.48 34.9877C341.453 34.9877 343.326 31.9731 343.326 27.1315C343.326 22.975 341.91 14.4337 336.246 14.4337C332.135 14.4337 330.4 17.8593 330.4 22.1985C330.4 25.9896 331.724 34.9877 337.48 34.9877ZM350.898 34.805C353.273 34.5766 354.552 33.6631 354.552 30.6942V17.5853L350.898 15.8039V15.0275L357.795 12.5153L358.389 12.7893V17.7223C359.942 15.1645 362.18 12.8807 364.738 12.8807C366.154 12.8807 367.57 14.0226 367.478 16.215C367.433 17.631 366.428 18.7729 365.195 18.7729C363.779 18.7729 363.368 16.3064 362.363 16.3064C360.81 16.3064 359.531 18.1334 358.389 20.1888V30.6942C358.389 33.6631 360.033 34.5766 362.865 34.805V36.1753H350.898V34.805Z" fill="white"/>
<path d="M153.968 155.572C151.593 155.572 149.538 154.612 146.98 153.196L147.117 147.304L148.624 147.076C149.264 151.187 151.365 153.836 154.334 153.836C156.572 153.836 158.308 152.374 158.353 150.091C158.353 148.583 157.166 147.122 155.202 145.98C153.968 145.249 152.781 144.472 151.548 143.787C149.355 142.6 147.208 140.59 147.208 137.301C147.208 134.058 150.223 131.455 154.288 131.455C156.618 131.455 158.901 132.231 160.865 133.328L160.82 138.032L159.358 138.261L159.221 137.804C158.353 134.789 156.846 133.099 154.151 133.099C152.233 133.099 150.725 134.469 150.725 136.205C150.725 137.712 151.502 138.763 153.009 139.722C154.014 140.453 155.476 141.184 156.8 141.96C159.541 143.65 161.596 145.158 161.596 148.857C161.596 152.877 158.399 155.572 153.968 155.572ZM172.589 155.572C171.355 155.572 170.259 155.206 169.665 154.612C168.98 153.927 168.569 152.603 168.569 150.045V134.332H165.144L165.281 132.916C167.975 131.409 169.711 129.811 171.355 127.481L172.543 127.572L172.406 132.094H178.801L178.664 134.332H172.406V149.816C172.406 151.232 172.589 151.963 173.091 152.42C173.411 152.74 174.142 153.059 175.055 153.059C176.243 153.059 177.476 152.922 178.298 152.785L178.618 154.475C177.476 154.932 175.603 155.572 172.589 155.572ZM181.568 153.562C183.943 153.333 185.222 152.42 185.222 149.451V136.342L181.568 134.561V133.784L188.465 131.272L189.059 131.546V149.451C189.059 152.42 190.292 153.333 192.53 153.562V154.932H181.568V153.562ZM187.049 124.878C185.313 124.878 183.943 123.507 183.943 121.817C183.943 120.127 185.313 118.757 187.049 118.757C188.693 118.757 190.064 120.127 190.064 121.817C190.064 123.507 188.693 124.878 187.049 124.878ZM195.396 153.562C197.771 153.333 199.05 152.42 199.05 149.451V124.558L195.578 122.776V121.954L202.293 119.488L202.886 119.762V149.451C202.886 152.42 204.074 153.333 206.266 153.562V154.932H195.396V153.562ZM209.446 153.562C211.821 153.333 213.1 152.42 213.1 149.451V124.558L209.629 122.776V121.954L216.343 119.488L216.937 119.762V149.451C216.937 152.42 218.125 153.333 220.317 153.562V154.932H209.446V153.562ZM237.337 153.562C239.757 153.333 241.036 152.42 241.036 149.451V140.27C241.036 138.169 240.625 136.936 239.803 136.022C239.072 135.155 237.93 134.698 236.606 134.698C234.55 134.698 232.586 135.52 231.033 136.708V149.451C231.033 152.42 232.221 153.333 234.596 153.562V154.932H223.497V153.562C225.872 153.333 227.197 152.42 227.197 149.451V136.342L223.497 134.561V133.784L230.394 131.272L231.033 131.546V135.155C233.317 132.962 235.875 131.501 238.57 131.501C240.488 131.501 242.132 132.277 243.274 133.602C244.279 134.789 244.873 136.433 244.873 139.22V149.451C244.873 152.42 246.061 153.333 248.299 153.562V154.932H237.337V153.562ZM261.078 155.48C255.14 155.48 250.938 150.41 250.938 143.787C250.938 136.616 255.231 131.455 260.849 131.455C265.599 131.455 269.208 135.794 269.528 140.088L268.888 140.864L254.272 140.727V141.321C254.318 148.538 258.702 151.689 263.042 151.689C265.234 151.689 267.152 150.821 268.523 149.131L269.573 149.816C267.563 153.288 264.595 155.48 261.078 155.48ZM254.455 139.128L264.732 138.991C264.412 136.205 262.813 133.282 260.027 133.282C256.464 133.282 254.957 136.205 254.455 139.128ZM280.781 155.572C278.406 155.572 276.35 154.612 273.792 153.196L273.93 147.304L275.437 147.076C276.076 151.187 278.177 153.836 281.146 153.836C283.384 153.836 285.12 152.374 285.166 150.091C285.166 148.583 283.978 147.122 282.014 145.98C280.781 145.249 279.593 144.472 278.36 143.787C276.168 142.6 274.021 140.59 274.021 137.301C274.021 134.058 277.035 131.455 281.101 131.455C283.43 131.455 285.714 132.231 287.678 133.328L287.632 138.032L286.171 138.261L286.034 137.804C285.166 134.789 283.658 133.099 280.964 133.099C279.045 133.099 277.538 134.469 277.538 136.205C277.538 137.712 278.314 138.763 279.822 139.722C280.827 140.453 282.288 141.184 283.613 141.96C286.353 143.65 288.409 145.158 288.409 148.857C288.409 152.877 285.211 155.572 280.781 155.572ZM300.006 155.572C297.631 155.572 295.575 154.612 293.017 153.196L293.154 147.304L294.662 147.076C295.301 151.187 297.402 153.836 300.371 153.836C302.609 153.836 304.345 152.374 304.391 150.091C304.391 148.583 303.203 147.122 301.239 145.98C300.006 145.249 298.818 144.472 297.585 143.787C295.392 142.6 293.246 140.59 293.246 137.301C293.246 134.058 296.26 131.455 300.325 131.455C302.655 131.455 304.939 132.231 306.903 133.328L306.857 138.032L305.395 138.261L305.258 137.804C304.391 134.789 302.883 133.099 300.188 133.099C298.27 133.099 296.763 134.469 296.763 136.205C296.763 137.712 297.539 138.763 299.046 139.722C300.051 140.453 301.513 141.184 302.838 141.96C305.578 143.65 307.634 145.158 307.634 148.857C307.634 152.877 304.436 155.572 300.006 155.572ZM314.104 161.738C315.931 160.824 318.991 159.317 318.991 156.668C318.991 154.886 316.753 154.841 315.611 154.156C314.744 153.699 314.287 153.014 314.287 152.055C314.287 150.639 315.292 149.314 317.119 149.314C319.083 149.314 321.595 151.095 321.595 154.749C321.595 159.089 318.306 161.601 314.561 162.971L314.104 161.738Z" fill="white"/>
<path d="M17.2197 214.316C15.3927 214.316 14.1595 212.854 14.0681 210.57C11.8757 212.854 10.2314 214.362 7.44514 214.362C4.11081 214.362 1.96405 211.621 1.96405 208.88C1.96405 204.13 6.02919 202.714 10.8708 201.116L12.1497 200.705L14.1138 200.065V198.969C14.1138 195.817 13.7027 194.219 12.8349 193.305C12.1041 192.529 11.1449 192.3 10.1857 192.3C8.54135 192.3 6.12054 193.533 6.12054 194.949C6.12054 195.406 6.39459 195.817 6.62297 196.183L6.89703 196.639C7.21676 197.142 7.35378 197.37 7.35378 197.736C7.35378 197.964 7.17108 198.192 6.9427 198.329L5.20703 199.243C4.61324 199.563 4.38487 199.608 4.11081 199.608C3.88243 199.608 3.65405 199.517 3.38 199.015C2.78622 198.01 2.60351 197.279 2.60351 196.411C2.64919 192.711 7.58216 190.427 11.1905 190.427C13.2916 190.427 14.9359 190.839 16.3062 191.98C17.4024 192.894 17.9049 194.31 17.9049 197.233L17.8135 208.287C17.8135 209.931 18.2703 210.753 19.2295 210.753C19.9146 210.753 20.28 210.57 20.5084 210.296L21.4676 211.393C20.28 213.083 19.3665 214.316 17.2197 214.316ZM6.12054 207.693C6.12054 209.611 7.58216 210.936 9.50054 210.936C10.7795 210.936 12.1041 210.296 13.383 209.383L14.0224 208.972L14.1138 201.755L11.693 202.851C9.31784 203.993 6.12054 205.044 6.12054 207.693ZM37.5625 212.535C39.9833 212.306 41.2623 211.393 41.2623 208.424V199.243C41.2623 197.142 40.8512 195.909 40.029 194.995C39.2982 194.127 38.1563 193.67 36.8317 193.67C34.7763 193.67 32.8123 194.493 31.2593 195.68V208.424C31.2593 211.393 32.4469 212.306 34.822 212.535V213.905H23.7228V212.535C26.0979 212.306 27.4225 211.393 27.4225 208.424V195.315L23.7228 193.533V192.757L30.6198 190.245L31.2593 190.519V194.127C33.5431 191.935 36.1009 190.473 38.7958 190.473C40.7142 190.473 42.3585 191.25 43.5004 192.574C44.5052 193.762 45.099 195.406 45.099 198.192V208.424C45.099 211.393 46.2866 212.306 48.5247 212.535V213.905H37.5625V212.535ZM68.703 214.59L68.0179 214.27L68.2462 210.114C66.0995 212.809 63.77 214.499 60.5271 214.499C55.2744 214.499 51.1635 209.703 51.1635 202.943C51.1635 196.091 55.9595 190.427 63.3133 190.427C65.1403 190.427 66.7846 190.884 68.1549 191.661V183.53L64.6835 181.749V180.927L71.3979 178.46L71.9916 178.735V208.15C71.9916 210.662 73.1335 211.438 75.3717 211.621V212.991C73.0422 213.311 70.8041 213.813 68.703 214.59ZM55.0916 201.39C55.0916 206.003 57.0557 210.845 62.3998 210.845C64.9119 210.845 66.8303 209.977 68.1549 208.469V200.111C68.1549 197.005 67.5154 195.223 66.3735 194.082C65.3687 193.031 64.0441 192.529 62.3998 192.529C57.8322 192.529 55.0916 196.274 55.0916 201.39ZM97.6646 214.544C96.4314 214.544 95.3351 214.179 94.7414 213.585C94.0562 212.9 93.6451 211.575 93.6451 209.017V193.305H90.2195L90.3565 191.889C93.0514 190.382 94.787 188.783 96.4314 186.454L97.6189 186.545L97.4819 191.067H103.876L103.739 193.305H97.4819V208.789C97.4819 210.205 97.6646 210.936 98.167 211.393C98.4868 211.712 99.2176 212.032 100.131 212.032C101.319 212.032 102.552 211.895 103.374 211.758L103.694 213.448C102.552 213.905 100.679 214.544 97.6646 214.544ZM106.644 212.535C109.019 212.306 110.298 211.393 110.298 208.424V195.315L106.644 193.533V192.757L113.541 190.245L114.135 190.519V208.424C114.135 211.393 115.368 212.306 117.606 212.535V213.905H106.644V212.535ZM112.125 183.85C110.389 183.85 109.019 182.48 109.019 180.79C109.019 179.1 110.389 177.73 112.125 177.73C113.769 177.73 115.139 179.1 115.139 180.79C115.139 182.48 113.769 183.85 112.125 183.85ZM148.105 212.535C150.617 212.306 151.942 211.393 151.942 208.424V199.243C151.942 197.142 151.531 195.909 150.709 194.995C149.978 194.127 148.836 193.67 147.511 193.67C145.365 193.67 143.446 194.538 141.711 195.954C141.848 196.639 141.893 197.325 141.893 198.192V208.424C141.893 211.393 143.081 212.306 145.319 212.535V213.905H134.311V212.535C136.778 212.306 138.057 211.393 138.057 208.424V199.243C138.057 197.142 137.645 195.909 136.823 194.995C136.092 194.127 134.951 193.67 133.626 193.67C131.571 193.67 129.607 194.493 128.008 195.726V208.424C128.008 211.393 129.195 212.306 131.571 212.535V213.905H120.471V212.535C122.847 212.306 124.171 211.393 124.171 208.424V195.315L120.471 193.533V192.757L127.368 190.245L128.008 190.519V194.173C130.292 191.935 132.849 190.473 135.59 190.473C137.508 190.473 139.153 191.25 140.295 192.574C140.797 193.168 141.117 193.762 141.391 194.584C143.812 192.026 146.415 190.473 149.475 190.473C151.394 190.473 153.038 191.25 154.18 192.574C155.185 193.762 155.779 195.406 155.779 198.192V208.424C155.779 211.393 156.966 212.306 159.204 212.535V213.905H148.105V212.535ZM171.969 214.453C166.031 214.453 161.829 209.383 161.829 202.76C161.829 195.589 166.122 190.427 171.741 190.427C176.491 190.427 180.099 194.767 180.419 199.06L179.779 199.837L165.163 199.7V200.293C165.209 207.51 169.594 210.662 173.933 210.662C176.125 210.662 178.044 209.794 179.414 208.104L180.465 208.789C178.455 212.26 175.486 214.453 171.969 214.453ZM165.346 198.101L175.623 197.964C175.303 195.178 173.705 192.255 170.918 192.255C167.356 192.255 165.848 195.178 165.346 198.101Z" fill="white"/>
<path d="M69.9684 96.1927C67.5933 96.1927 65.5379 95.2335 62.98 93.8175L63.117 87.9254L64.6243 87.697C65.2638 91.8078 67.3649 94.457 70.3338 94.457C72.5719 94.457 74.3076 92.9954 74.3533 90.7116C74.3533 89.2043 73.1657 87.7427 71.2016 86.6008C69.9684 85.87 68.7808 85.0935 67.5476 84.4084C65.3552 83.2208 63.2084 81.2111 63.2084 77.9224C63.2084 74.6794 66.223 72.0759 70.2881 72.0759C72.6176 72.0759 74.9014 72.8524 76.8654 73.9486L76.8198 78.6532L75.3581 78.8816L75.2211 78.4248C74.3533 75.4102 72.846 73.7202 70.1511 73.7202C68.2327 73.7202 66.7254 75.0905 66.7254 76.8262C66.7254 78.3335 67.5019 79.384 69.0092 80.3432C70.0141 81.074 71.4757 81.8048 72.8003 82.5813C75.5408 84.2713 77.5962 85.7786 77.5962 89.4784C77.5962 93.4978 74.3989 96.1927 69.9684 96.1927ZM90.3701 96.147C88.4517 96.147 86.8074 95.3705 85.6655 94.0459C84.6606 92.8584 84.0668 91.214 84.0668 88.4278V78.1508C84.0668 75.1819 82.8336 74.2684 80.5955 74.04V72.6697L87.9036 72.2129V87.3773C87.9036 89.4784 88.3147 90.7116 89.1368 91.6251C89.8677 92.5386 90.9639 92.9497 92.2885 92.9497C94.3895 92.9497 96.2622 92.1732 97.9066 90.8943V78.1508C97.9066 75.1819 96.6733 74.2684 94.3895 74.04V72.6697L101.743 72.2129V89.2957C101.743 92.3102 102.885 93.0867 105.123 93.2694V94.6397C102.794 94.9594 100.556 95.4619 98.4547 96.2384L97.7695 95.9186L97.9522 92.4473C95.6228 94.6854 93.0649 96.147 90.3701 96.147ZM121.622 94.183C124.043 93.9546 125.322 93.0411 125.322 90.0721V80.8913C125.322 78.7902 124.911 77.557 124.089 76.6435C123.358 75.7757 122.216 75.3189 120.891 75.3189C118.836 75.3189 116.872 76.1411 115.319 77.3286V90.0721C115.319 93.0411 116.507 93.9546 118.882 94.183V95.5532H107.783V94.183C110.158 93.9546 111.482 93.0411 111.482 90.0721V76.9632L107.783 75.1819V74.4054L114.68 71.8932L115.319 72.1673V75.7757C117.603 73.5832 120.161 72.1216 122.855 72.1216C124.774 72.1216 126.418 72.8981 127.56 74.2227C128.565 75.4102 129.159 77.0546 129.159 79.8408V90.0721C129.159 93.0411 130.346 93.9546 132.584 94.183V95.5532H121.622V94.183ZM134.858 94.183C137.233 93.9546 138.512 93.0411 138.512 90.0721V65.1789L135.041 63.3975V62.5754L141.755 60.1089L142.349 60.3829V90.0721C142.349 93.0411 143.536 93.9546 145.729 94.183V95.5532H134.858V94.183ZM148.908 94.183C151.284 93.9546 152.563 93.0411 152.563 90.0721V76.9632L148.908 75.1819V74.4054L155.805 71.8932L156.399 72.1673V90.0721C156.399 93.0411 157.633 93.9546 159.871 94.183V95.5532H148.908V94.183ZM154.39 65.4986C152.654 65.4986 151.284 64.1284 151.284 62.4384C151.284 60.7484 152.654 59.3781 154.39 59.3781C156.034 59.3781 157.404 60.7484 157.404 62.4384C157.404 64.1284 156.034 65.4986 154.39 65.4986ZM171.14 105.876C165.888 105.876 162.051 103.821 162.051 100.715C162.051 98.7048 164.289 97.3346 167.03 95.5075C165.066 95.0965 163.787 93.8175 163.787 92.1732C163.787 90.4832 165.705 89.0216 167.852 87.0575C165.431 85.6873 163.924 83.2208 163.924 80.1605C163.924 75.6386 167.578 72.1216 172.648 72.1216C174.475 72.1216 175.708 72.5327 177.078 72.7611C179.316 73.1265 180.961 73.3092 183.93 73.3092V75.5473C182.285 75.5473 180.55 75.4559 178.951 75.1362C180.184 76.3238 181.006 78.1051 181.006 80.1148C181.006 84.6824 177.307 88.1538 172.237 88.1538C171.14 88.1538 170.09 87.9711 169.176 87.6513C168.034 88.6562 167.212 89.4784 167.212 90.3919C167.212 91.214 168.263 91.8992 170.501 91.9448C171.917 91.9905 173.835 91.9448 174.931 91.9448C179.362 91.9448 183.61 93.5435 183.656 97.6543C183.656 103.044 176.941 105.876 171.14 105.876ZM172.876 86.4181C175.662 86.4181 177.124 84.317 177.124 81.1197C177.124 78.973 176.21 73.7659 172.328 73.7659C169.587 73.7659 168.034 75.867 168.034 79.0186C168.034 81.1654 168.902 86.4181 172.876 86.4181ZM165.477 100.075C165.477 102.222 167.943 103.729 172.237 103.729C175.023 103.729 180.321 103.364 180.321 99.2073C180.321 96.9235 178.768 95.873 175.891 95.7816C173.333 95.6902 170.912 95.7359 168.72 95.6446C166.756 97.4259 165.477 98.6592 165.477 100.075ZM200.037 94.183C202.458 93.9546 203.737 93.0411 203.737 90.0721V80.8913C203.737 78.7902 203.371 77.557 202.549 76.6435C201.818 75.7757 200.676 75.3189 199.352 75.3189C197.251 75.3189 195.332 76.1411 193.734 77.3743V90.0721C193.734 93.0411 194.967 93.9546 197.342 94.183V95.5532H186.243V94.183C188.618 93.9546 189.897 93.0411 189.897 90.0721V65.1789L186.426 63.3975V62.5754L193.14 60.1089L193.734 60.3829V75.8213C196.018 73.6289 198.575 72.1216 201.27 72.1216C203.189 72.1216 204.833 72.8981 205.975 74.2227C206.98 75.4102 207.574 77.0546 207.574 79.8408V90.0721C207.574 93.0411 208.807 93.9546 211.045 94.183V95.5532H200.037V94.183ZM220.308 96.1927C219.075 96.1927 217.978 95.8273 217.385 95.2335C216.699 94.5484 216.288 93.2238 216.288 90.6659V74.9535H212.863L213 73.5375C215.695 72.0302 217.43 70.4316 219.075 68.1021L220.262 68.1935L220.125 72.7154H226.52L226.383 74.9535H220.125V90.4375C220.125 91.8535 220.308 92.5843 220.81 93.0411C221.13 93.3608 221.861 93.6805 222.774 93.6805C223.962 93.6805 225.195 93.5435 226.017 93.4065L226.337 95.0965C225.195 95.5532 223.322 96.1927 220.308 96.1927ZM231.799 102.359C233.626 101.445 236.686 99.9381 236.686 97.2889C236.686 95.5075 234.448 95.4619 233.306 94.7767C232.439 94.32 231.982 93.6348 231.982 92.6757C231.982 91.2597 232.987 89.9351 234.814 89.9351C236.778 89.9351 239.29 91.7165 239.29 95.3705C239.29 99.7097 236.001 102.222 232.256 103.592L231.799 102.359Z" fill="white"/>
</svg>
