<svg width="444" height="283" viewBox="0 0 444 283" fill="none" xmlns="http://www.w3.org/2000/svg">
<path d="M246.46 36.0598C246.46 29.5798 241.24 25.4398 233.5 25.4398C232.66 25.4398 231.88 25.4998 231.04 25.5598V38.6998C231.04 41.6398 231.52 42.4198 232.18 43.1398C233.14 44.2198 234.7 44.6998 236.8 44.6998C242.74 44.6998 246.46 41.3398 246.46 36.0598ZM231.04 22.6798C231.82 22.7998 232.66 22.8598 233.8 22.8598C240.22 22.8598 244.9 20.9998 244.9 14.9398C244.9 9.35978 240.58 5.75978 234.16 5.75978C233.26 5.75978 231.94 5.93978 231.04 6.05978V22.6798ZM219.88 45.3598C223.24 45.0598 225.04 43.8598 225.04 39.9598V10.1998C225.04 6.29978 223.24 5.09978 219.88 4.79978V2.87978H235.3C242.08 2.87978 244.9 4.31978 247.12 5.87978C249.76 7.79978 251.44 10.6198 251.44 13.9198C251.44 19.7398 245.98 22.9798 240.28 24.1198C246.52 24.4798 253.06 28.9798 253.06 35.7598C253.06 39.0598 251.32 42.0598 248.62 44.1598C244.9 47.0998 240.82 47.2798 234.94 47.2798H219.88V45.3598ZM270.345 48.0598C267.825 48.0598 265.665 47.0398 264.165 45.2998C262.845 43.7398 262.065 41.5798 262.065 37.9198V24.5998C262.065 20.6998 260.505 19.4998 257.625 19.1998V17.2798L267.465 16.6798V36.4798C267.465 39.1798 268.005 40.7998 269.025 41.9398C269.985 43.0798 271.425 43.6798 273.165 43.6798C275.805 43.6798 278.265 42.5998 280.305 40.9798V24.5998C280.305 20.6998 278.685 19.4998 275.745 19.1998V17.2798L285.705 16.6798V38.9398C285.705 42.8998 287.205 43.9198 290.145 44.1598V46.0798C286.965 46.4998 283.905 47.1598 281.025 48.1798L280.125 47.7598L280.365 43.1398C277.365 46.0798 273.945 48.0598 270.345 48.0598ZM294.216 45.3598C297.336 45.0598 299.016 43.8598 299.016 39.9598V23.0998L294.216 20.7598V19.6198L303.516 16.2598L304.416 16.6798V39.9598C304.416 43.8598 306.036 45.0598 308.976 45.3598V47.2798H294.216V45.3598ZM301.536 8.33978C299.196 8.33978 297.336 6.47978 297.336 4.13978C297.336 1.85978 299.196 -0.000217676 301.536 -0.000217676C303.816 -0.000217676 305.676 1.85978 305.676 4.13978C305.676 6.47978 303.816 8.33978 301.536 8.33978ZM312.614 45.3598C315.734 45.0598 317.414 43.8598 317.414 39.9598V7.55978L312.854 5.21978V4.01978L321.914 0.719784L322.814 1.13978V39.9598C322.814 43.8598 324.374 45.0598 327.254 45.3598V47.2798H312.614V45.3598ZM340.083 48.1198C338.283 48.1198 336.783 47.5798 336.003 46.7998C335.103 45.8998 334.503 44.1598 334.503 40.7998V20.2798H330.003L330.183 18.3598C333.783 16.3798 336.183 14.2198 338.403 11.0998L340.083 11.2798L339.903 17.2798H348.303L348.123 20.2798H339.903V40.3198C339.903 42.1798 340.143 43.1398 340.803 43.7398C341.223 44.1598 342.183 44.5798 343.383 44.5798C344.943 44.5798 346.563 44.3998 347.643 44.2198L348.063 46.6198C346.623 47.2198 344.043 48.1198 340.083 48.1198ZM367.457 45.3598C370.217 45.1198 371.717 43.8598 371.717 41.1598V20.2798H366.917L367.097 17.7598C370.037 17.5198 371.777 17.5198 372.197 13.8598L372.377 12.5398C372.737 9.53978 373.697 7.19978 375.017 5.45978C377.057 2.69978 380.897 0.719784 384.677 0.719784C389.057 0.719784 391.577 2.45978 391.577 5.09978C391.577 6.95978 390.317 8.15978 388.577 8.15978C387.257 8.15978 385.997 6.95978 385.277 6.11978C384.257 4.91978 383.597 3.59978 381.917 3.59978C378.137 3.59978 376.997 9.59978 376.997 13.7998C376.997 14.9398 376.997 16.1398 377.117 17.2798H385.157L384.977 20.2798H377.117V40.5598C377.117 44.4598 378.977 44.8798 382.817 45.3598V47.2798H367.457V45.3598ZM401.485 48.1198C393.445 48.1198 387.625 41.3998 387.625 32.5798C387.625 23.2198 393.985 16.4398 401.905 16.4398C410.005 16.4398 415.765 23.0998 415.765 31.7998C415.765 41.3398 409.525 48.1198 401.485 48.1198ZM402.685 45.5998C407.725 45.5998 410.125 41.6998 410.125 35.3398C410.125 30.0598 408.385 18.8398 401.065 18.8398C395.845 18.8398 393.565 23.2198 393.565 28.9798C393.565 33.8998 395.245 45.5998 402.685 45.5998ZM420.31 45.3598C423.43 45.0598 425.11 43.8598 425.11 39.9598V23.0998L420.31 20.7598V19.6198L429.61 16.2598L430.51 16.6798V22.9198C432.61 19.4998 435.43 16.6798 438.79 16.6798C440.71 16.6798 442.63 18.1798 442.51 21.1198C442.45 23.0398 441.13 24.5398 439.51 24.5398C437.53 24.5398 436.99 21.4198 435.61 21.4198C433.63 21.4198 431.95 23.6998 430.51 26.2798V39.9598C430.51 43.8598 432.55 45.0598 436.27 45.3598V47.2798H420.31V45.3598Z" fill="#FDFDF4"/>
<path d="M44.9 126.12C41.72 126.12 38.96 124.86 35.54 123L35.66 115.26L37.7 114.96C38.66 120.3 41.36 123.72 45.38 123.72C48.26 123.72 50.48 121.92 50.54 118.92C50.54 116.94 48.98 115.14 46.46 113.7C44.78 112.74 43.16 111.72 41.48 110.82C38.42 109.2 35.72 106.62 35.72 102.24C35.72 97.9198 39.74 94.4398 45.2 94.4398C48.32 94.4398 51.32 95.4598 53.9 96.8998V103.14L51.92 103.44L51.74 102.84C50.6 98.9998 48.56 96.7198 45.02 96.7198C42.5 96.7198 40.52 98.4598 40.52 100.68C40.52 102.6 41.54 103.92 43.58 105.18C44.96 106.14 46.94 107.1 48.74 108.12C52.34 110.28 55.04 112.32 55.04 117.18C55.04 122.52 50.78 126.12 44.9 126.12ZM71.5756 126.06C69.0556 126.06 66.8956 125.04 65.3956 123.3C64.0756 121.74 63.2956 119.58 63.2956 115.92V102.6C63.2956 98.6998 61.7356 97.4998 58.8556 97.1998V95.2798L68.6956 94.6798V114.48C68.6956 117.18 69.2356 118.8 70.2556 119.94C71.2156 121.08 72.6556 121.68 74.3956 121.68C77.0356 121.68 79.4956 120.6 81.5356 118.98V102.6C81.5356 98.6998 79.9156 97.4998 76.9756 97.1998V95.2798L86.9356 94.6798V116.94C86.9356 120.9 88.4356 121.92 91.3756 122.16V124.08C88.1956 124.5 85.1356 125.16 82.2556 126.18L81.3556 125.76L81.5956 121.14C78.5956 124.08 75.1756 126.06 71.5756 126.06ZM112.983 123.36C116.103 123.06 117.783 121.86 117.783 117.96V106.08C117.783 103.38 117.243 101.76 116.223 100.62C115.263 99.4798 113.823 98.8798 112.083 98.8798C109.443 98.8798 107.043 99.8998 104.943 101.52V117.96C104.943 121.86 106.563 123.06 109.503 123.36V125.28H94.7431V123.36C97.8631 123.06 99.5431 121.86 99.5431 117.96V101.1L94.7431 98.7598V97.6198L104.043 94.2598L104.943 94.6798V99.3598C107.943 96.4798 111.363 94.4998 114.903 94.4998C117.423 94.4998 119.583 95.5198 121.083 97.2598C122.403 98.8198 123.183 100.98 123.183 104.64V117.96C123.183 121.86 124.743 123.06 127.623 123.36V125.28H112.983V123.36ZM130.485 123.36C133.605 123.06 135.285 121.86 135.285 117.96V85.5598L130.725 83.2198V82.0198L139.785 78.7198L140.685 79.1398V117.96C140.685 121.86 142.245 123.06 145.125 123.36V125.28H130.485V123.36ZM149.177 123.36C152.297 123.06 153.977 121.86 153.977 117.96V101.1L149.177 98.7598V97.6198L158.477 94.2598L159.377 94.6798V117.96C159.377 121.86 160.997 123.06 163.937 123.36V125.28H149.177V123.36ZM156.497 86.3398C154.157 86.3398 152.297 84.4798 152.297 82.1398C152.297 79.8598 154.157 77.9998 156.497 77.9998C158.777 77.9998 160.637 79.8598 160.637 82.1398C160.637 84.4798 158.777 86.3398 156.497 86.3398ZM178.735 138.84C171.835 138.84 166.795 136.14 166.795 132.06C166.795 129.48 169.615 127.68 173.095 125.34C170.575 124.74 168.955 123.06 168.955 120.9C168.955 118.62 171.415 116.7 174.355 114.12C171.115 112.32 169.135 109.08 169.135 105.06C169.135 99.1198 173.995 94.4998 180.655 94.4998C183.115 94.4998 184.735 95.0398 186.535 95.3398C189.475 95.8198 191.695 96.0598 195.655 96.0598V99.0598C193.495 99.0598 191.275 98.9398 189.115 98.5198C190.735 100.14 191.755 102.42 191.755 105C191.755 111 186.835 115.56 180.115 115.56C178.735 115.56 177.475 115.38 176.215 114.96C174.715 116.22 173.635 117.3 173.635 118.44C173.635 119.52 175.015 120.36 177.895 120.42C179.755 120.48 182.215 120.42 183.895 120.42C189.775 120.42 195.115 122.58 195.175 127.98C195.175 135.18 186.355 138.84 178.735 138.84ZM180.955 113.16C184.495 113.16 186.415 110.46 186.415 106.32C186.415 103.5 185.215 96.7798 180.235 96.7798C176.755 96.7798 174.775 99.4798 174.775 103.56C174.775 106.38 175.915 113.16 180.955 113.16ZM171.355 131.22C171.355 133.98 174.595 135.96 180.175 135.96C183.775 135.96 190.675 135.42 190.675 130.14C190.675 127.2 188.635 125.88 184.915 125.76C181.555 125.64 178.315 125.7 175.375 125.58C172.915 127.86 171.355 129.42 171.355 131.22ZM216.635 123.36C219.755 123.06 221.435 121.86 221.435 117.96V106.08C221.435 103.38 220.895 101.76 219.875 100.62C218.915 99.4798 217.475 98.8798 215.735 98.8798C213.095 98.8798 210.695 99.8998 208.595 101.52V117.96C208.595 121.86 210.215 123.06 213.155 123.36V125.28H198.395V123.36C201.515 123.06 203.195 121.86 203.195 117.96V85.5598L198.635 83.2198V82.0198L207.695 78.7198L208.595 79.1398V99.3598C211.655 96.4198 215.015 94.4998 218.555 94.4998C221.075 94.4998 223.235 95.5198 224.735 97.2598C226.055 98.8198 226.835 100.98 226.835 104.64V117.96C226.835 121.86 228.395 123.06 231.275 123.36V125.28H216.635V123.36ZM243.618 126.12C241.818 126.12 240.318 125.58 239.538 124.8C238.638 123.9 238.038 122.16 238.038 118.8V98.2798H233.538L233.718 96.3598C237.318 94.3798 239.718 92.2198 241.938 89.0998L243.618 89.2798L243.438 95.2798H251.838L251.658 98.2798H243.438V118.32C243.438 120.18 243.678 121.14 244.338 121.74C244.758 122.16 245.718 122.58 246.918 122.58C248.478 122.58 250.098 122.4 251.178 122.22L251.598 124.62C250.158 125.22 247.578 126.12 243.618 126.12ZM258.706 133.92C261.046 132.78 264.946 130.86 264.946 127.56C264.946 125.22 262.066 125.1 260.626 124.26C259.426 123.6 258.886 122.7 258.886 121.38C258.886 119.52 260.206 117.72 262.726 117.72C265.306 117.72 268.546 120.06 268.546 124.8C268.546 130.5 264.286 133.8 259.306 135.6L258.706 133.92Z" fill="#FDFDF4"/>
<path d="M166.9 204.12C163.72 204.12 160.96 202.86 157.54 201L157.66 193.26L159.7 192.96C160.66 198.3 163.36 201.72 167.38 201.72C170.26 201.72 172.48 199.92 172.54 196.92C172.54 194.94 170.98 193.14 168.46 191.7C166.78 190.74 165.16 189.72 163.48 188.82C160.42 187.2 157.72 184.62 157.72 180.24C157.72 175.92 161.74 172.44 167.2 172.44C170.32 172.44 173.32 173.46 175.9 174.9V181.14L173.92 181.44L173.74 180.84C172.6 177 170.56 174.72 167.02 174.72C164.5 174.72 162.52 176.46 162.52 178.68C162.52 180.6 163.54 181.92 165.58 183.18C166.96 184.14 168.94 185.1 170.74 186.12C174.34 188.28 177.04 190.32 177.04 195.18C177.04 200.52 172.78 204.12 166.9 204.12ZM191.536 204.12C189.736 204.12 188.236 203.58 187.456 202.8C186.556 201.9 185.956 200.16 185.956 196.8V176.28H181.456L181.636 174.36C185.236 172.38 187.636 170.22 189.856 167.1L191.536 167.28L191.356 173.28H199.756L199.576 176.28H191.356V196.32C191.356 198.18 191.596 199.14 192.256 199.74C192.676 200.16 193.636 200.58 194.836 200.58C196.396 200.58 198.016 200.4 199.096 200.22L199.516 202.62C198.076 203.22 195.496 204.12 191.536 204.12ZM203.384 201.36C206.504 201.06 208.184 199.86 208.184 195.96V179.1L203.384 176.76V175.62L212.684 172.26L213.584 172.68V195.96C213.584 199.86 215.204 201.06 218.144 201.36V203.28H203.384V201.36ZM210.704 164.34C208.364 164.34 206.504 162.48 206.504 160.14C206.504 157.86 208.364 156 210.704 156C212.984 156 214.844 157.86 214.844 160.14C214.844 162.48 212.984 164.34 210.704 164.34ZM221.782 201.36C224.902 201.06 226.582 199.86 226.582 195.96V163.56L222.022 161.22V160.02L231.082 156.72L231.982 157.14V195.96C231.982 199.86 233.542 201.06 236.422 201.36V203.28H221.782V201.36ZM240.474 201.36C243.594 201.06 245.274 199.86 245.274 195.96V163.56L240.714 161.22V160.02L249.774 156.72L250.674 157.14V195.96C250.674 199.86 252.234 201.06 255.114 201.36V203.28H240.474V201.36ZM277.405 201.36C280.525 201.06 282.205 199.86 282.205 195.96V184.08C282.205 181.38 281.665 179.76 280.645 178.62C279.685 177.48 278.245 176.88 276.505 176.88C273.865 176.88 271.465 177.9 269.365 179.52V195.96C269.365 199.86 270.985 201.06 273.925 201.36V203.28H259.165V201.36C262.285 201.06 263.965 199.86 263.965 195.96V179.1L259.165 176.76V175.62L268.465 172.26L269.365 172.68V177.36C272.365 174.48 275.785 172.5 279.325 172.5C281.845 172.5 284.005 173.52 285.505 175.26C286.825 176.82 287.605 178.98 287.605 182.64V195.96C287.605 199.86 289.165 201.06 292.045 201.36V203.28H277.405V201.36ZM308.707 204C300.907 204 295.387 197.34 295.387 188.64C295.387 179.22 301.027 172.44 308.407 172.44C314.707 172.44 319.567 178.14 319.987 183.84L319.147 184.86L300.127 184.68V185.22C300.127 194.64 305.887 198.84 311.527 198.84C314.407 198.84 316.867 197.64 318.667 195.48L320.107 196.44C317.407 201.06 313.387 204 308.707 204ZM300.367 182.52L313.447 182.34C313.027 178.68 310.987 174.96 307.387 174.96C302.827 174.96 300.907 178.86 300.367 182.52ZM334.947 204.12C331.767 204.12 329.007 202.86 325.587 201L325.707 193.26L327.747 192.96C328.707 198.3 331.407 201.72 335.427 201.72C338.307 201.72 340.527 199.92 340.587 196.92C340.587 194.94 339.027 193.14 336.507 191.7C334.827 190.74 333.207 189.72 331.527 188.82C328.467 187.2 325.767 184.62 325.767 180.24C325.767 175.92 329.787 172.44 335.247 172.44C338.367 172.44 341.367 173.46 343.947 174.9V181.14L341.967 181.44L341.787 180.84C340.647 177 338.607 174.72 335.067 174.72C332.547 174.72 330.567 176.46 330.567 178.68C330.567 180.6 331.587 181.92 333.627 183.18C335.007 184.14 336.987 185.1 338.787 186.12C342.387 188.28 345.087 190.32 345.087 195.18C345.087 200.52 340.827 204.12 334.947 204.12ZM360.377 204.12C357.197 204.12 354.437 202.86 351.017 201L351.137 193.26L353.177 192.96C354.137 198.3 356.837 201.72 360.857 201.72C363.737 201.72 365.957 199.92 366.017 196.92C366.017 194.94 364.457 193.14 361.937 191.7C360.257 190.74 358.637 189.72 356.957 188.82C353.897 187.2 351.197 184.62 351.197 180.24C351.197 175.92 355.217 172.44 360.677 172.44C363.797 172.44 366.797 173.46 369.377 174.9V181.14L367.397 181.44L367.217 180.84C366.077 177 364.037 174.72 360.497 174.72C357.977 174.72 355.997 176.46 355.997 178.68C355.997 180.6 357.017 181.92 359.057 183.18C360.437 184.14 362.417 185.1 364.217 186.12C367.817 188.28 370.517 190.32 370.517 195.18C370.517 200.52 366.257 204.12 360.377 204.12ZM378.772 211.92C381.112 210.78 385.012 208.86 385.012 205.56C385.012 203.22 382.132 203.1 380.692 202.26C379.492 201.6 378.952 200.7 378.952 199.38C378.952 197.52 380.272 195.72 382.792 195.72C385.372 195.72 388.612 198.06 388.612 202.8C388.612 208.5 384.352 211.8 379.372 213.6L378.772 211.92Z" fill="#FDFDF4"/>
<path d="M22.62 281.76C20.22 281.76 18.6 280.08 18.36 276.96C15.54 279.9 13.32 281.88 9.72 281.88C5.34 281.88 2.52 278.28 2.52 274.68C2.52 268.44 7.92 266.52 14.22 264.48L15.9 263.94L18.42 263.1V261.6C18.42 257.52 17.94 255.48 16.8 254.28C15.9 253.32 14.64 253.02 13.38 253.02C11.28 253.02 8.16 254.52 8.16 256.38C8.16 256.98 8.46 257.46 8.82 258L9.18 258.54C9.66 259.26 9.78 259.56 9.78 260.04C9.78 260.34 9.6 260.64 9.18 260.88L6.84 262.08C6.06 262.5 5.7 262.62 5.34 262.62C5.04 262.62 4.74 262.5 4.32 261.78C3.6 260.58 3.3 259.56 3.3 258.42C3.36 253.5 9.96 250.44 14.76 250.44C17.58 250.44 19.8 250.98 21.6 252.48C23.04 253.68 23.76 255.6 23.76 259.5L23.64 273.9C23.64 276 24.18 277.02 25.44 277.02C26.28 277.02 26.82 276.66 27.06 276.42L28.32 277.8C26.76 280.14 25.5 281.76 22.62 281.76ZM8.28 273C8.28 275.52 10.14 277.26 12.6 277.26C14.22 277.26 15.96 276.42 17.58 275.22L18.3 274.68L18.42 265.38L15.42 266.76C12.42 268.2 8.28 269.58 8.28 273ZM49.4597 279.36C52.5797 279.06 54.2597 277.86 54.2597 273.96V262.08C54.2597 259.38 53.7197 257.76 52.6997 256.62C51.7397 255.48 50.2997 254.88 48.5597 254.88C45.9197 254.88 43.5197 255.9 41.4197 257.52V273.96C41.4197 277.86 43.0397 279.06 45.9797 279.36V281.28H31.2197V279.36C34.3397 279.06 36.0197 277.86 36.0197 273.96V257.1L31.2197 254.76V253.62L40.5197 250.26L41.4197 250.68V255.36C44.4197 252.48 47.8397 250.5 51.3797 250.5C53.8997 250.5 56.0597 251.52 57.5597 253.26C58.8797 254.82 59.6597 256.98 59.6597 260.64V273.96C59.6597 277.86 61.2197 279.06 64.0997 279.36V281.28H49.4597V279.36ZM90.3619 282.18L89.4619 281.76L89.7619 276.3C86.9419 279.84 83.8819 282.06 79.6219 282.06C72.7819 282.06 67.4419 275.76 67.4419 266.88C67.4419 257.88 73.6819 250.44 83.2819 250.44C85.6819 250.44 87.8419 251.04 89.6419 252.06V241.56L85.0819 239.22V238.02L94.1419 234.72L95.0419 235.14V273.54C95.0419 276.9 96.5419 277.92 99.4819 278.16V280.08C96.3019 280.5 93.2419 281.16 90.3619 282.18ZM72.9619 264.78C72.9619 270.78 75.4819 277.08 82.2619 277.08C85.5019 277.08 87.9619 276 89.6419 274.08V262.98C89.6419 258.96 88.8019 256.68 87.3619 255.24C86.1019 253.92 84.3619 253.26 82.2619 253.26C76.4419 253.26 72.9619 258.12 72.9619 264.78ZM128.649 282.12C126.849 282.12 125.349 281.58 124.569 280.8C123.669 279.9 123.069 278.16 123.069 274.8V254.28H118.569L118.749 252.36C122.349 250.38 124.749 248.22 126.969 245.1L128.649 245.28L128.469 251.28H136.869L136.689 254.28H128.469V274.32C128.469 276.18 128.709 277.14 129.369 277.74C129.789 278.16 130.749 278.58 131.949 278.58C133.509 278.58 135.129 278.4 136.209 278.22L136.629 280.62C135.189 281.22 132.609 282.12 128.649 282.12ZM140.497 279.36C143.617 279.06 145.297 277.86 145.297 273.96V257.1L140.497 254.76V253.62L149.797 250.26L150.697 250.68V273.96C150.697 277.86 152.317 279.06 155.257 279.36V281.28H140.497V279.36ZM147.817 242.34C145.477 242.34 143.617 240.48 143.617 238.14C143.617 235.86 145.477 234 147.817 234C150.097 234 151.957 235.86 151.957 238.14C151.957 240.48 150.097 242.34 147.817 242.34ZM195.375 279.36C198.495 279.06 200.175 277.86 200.175 273.96V262.08C200.175 259.38 199.635 257.76 198.615 256.62C197.655 255.48 196.215 254.88 194.475 254.88C191.775 254.88 189.195 256.08 187.155 257.76C187.275 258.6 187.335 259.56 187.335 260.64V273.96C187.335 277.86 188.895 279.06 191.775 279.36V281.28H177.135V279.36C180.255 279.06 181.935 277.86 181.935 273.96V262.08C181.935 259.38 181.395 257.76 180.375 256.62C179.415 255.48 177.975 254.88 176.235 254.88C173.595 254.88 171.195 255.9 169.095 257.52V273.96C169.095 277.86 170.715 279.06 173.655 279.36V281.28H158.895V279.36C162.015 279.06 163.695 277.86 163.695 273.96V257.1L158.895 254.76V253.62L168.195 250.26L169.095 250.68V255.36C172.095 252.42 175.455 250.5 179.055 250.5C181.575 250.5 183.735 251.52 185.235 253.26C185.895 254.04 186.315 254.82 186.675 255.9C189.855 252.54 193.335 250.5 197.295 250.5C199.815 250.5 201.975 251.52 203.475 253.26C204.795 254.82 205.575 256.98 205.575 260.64V273.96C205.575 277.86 207.135 279.06 210.015 279.36V281.28H195.375V279.36ZM226.719 282C218.919 282 213.399 275.34 213.399 266.64C213.399 257.22 219.039 250.44 226.419 250.44C232.719 250.44 237.579 256.14 237.999 261.84L237.159 262.86L218.139 262.68V263.22C218.139 272.64 223.899 276.84 229.539 276.84C232.419 276.84 234.879 275.64 236.679 273.48L238.119 274.44C235.419 279.06 231.399 282 226.719 282ZM218.379 260.52L231.459 260.34C231.039 256.68 228.999 252.96 225.399 252.96C220.839 252.96 218.919 256.86 218.379 260.52Z" fill="#FDFDF4"/>
</svg>
